<?xml version="1.0" encoding="UTF-8" standalone="no"?>
<svg width="200px" height="200px" viewBox="0 0 200 200" version="1.1" xmlns="http://www.w3.org/2000/svg" xmlns:xlink="http://www.w3.org/1999/xlink">
    <!-- Generator: Sketch 3.7.2 (28276) - http://www.bohemiancoding.com/sketch -->
    <title>add-user</title>
    <desc>Created with Sketch.</desc>
    <defs>
        <polygon id="path-1" points="55 54.1735268 55 0.190044643 0.0352 0.190044643 0.0352 54.1735268 55 54.1735268"></polygon>
    </defs>
    <g id="Page-1" stroke="none" stroke-width="1" fill="none" fill-rule="evenodd">
        <g id="add-user">
            <path d="M117.907574,175 L25.0290546,175 C25.0290546,154.4109 23.3865276,143.058997 44.8011718,138.097297 C65.7613305,133.242786 86.4553758,128.89917 76.5065264,110.486887 C47.0317394,55.930231 68.097546,25 99.7550599,25 C130.79862,25 154.788682,55.7669447 122.99861,110.486887 C115.281325,123.781196 107.02085,135.201219 107.02085,147.422648 C107.02085,158.079332 111.160057,167.784349 117.907574,175" id="Fill-48" fill="#545658"></path>
            <g id="Group-52" transform="translate(120.000000, 120.000000)">
                <mask id="mask-2" fill="white">
                    <use xlink:href="#path-1"></use>
                </mask>
                <g id="Clip-51"></g>
                <path d="M44.4072,23.0592411 L32.5082,23.0592411 L32.5082,11.3805804 L23.3242,11.3805804 L23.3242,23.0592411 L11.4242,23.0592411 L11.4242,32.0880804 L23.3242,32.0880804 L23.3242,43.7687054 L32.5082,43.7687054 L32.5082,32.0880804 L44.4072,32.0880804 L44.4072,23.0592411 Z M55.0002,27.1812946 C55.0002,42.0921875 42.6842,54.1735268 27.5182,54.1735268 C12.3402,54.1735268 0.0352,42.0921875 0.0352,27.1812946 C0.0352,12.2782589 12.3412,0.190044643 27.5182,0.190044643 C42.6842,0.190044643 55.0002,12.2782589 55.0002,27.1812946 L55.0002,27.1812946 Z" id="Fill-50" fill="@color0" mask="url(#mask-2)"></path>
            </g>
        </g>
    </g>
</svg>