<?xml version="1.0" encoding="UTF-8" standalone="no"?>
<svg width="200px" height="200px" viewBox="0 0 200 200" version="1.1" xmlns="http://www.w3.org/2000/svg" xmlns:xlink="http://www.w3.org/1999/xlink">
    <!-- Generator: Sketch 3.7.2 (28276) - http://www.bohemiancoding.com/sketch -->
    <title>rocket</title>
    <desc>Created with Sketch.</desc>
    <defs></defs>
    <g id="Page-1" stroke="none" stroke-width="1" fill="none" fill-rule="evenodd">
        <g id="rocket">
            <path d="M67.5524834,150.733221 C64.1669859,144.211745 59.3768136,130.284899 57.6071446,121 C46.0459774,130.834564 38.8758015,154.109732 45.5884778,175 C47.2968117,162.905369 53.1849831,154.017114 67.5524834,150.733221 M155.411522,175 C162.124199,154.109732 154.954023,130.834564 143.392855,121 C141.623186,130.284899 136.833014,144.211745 133.447517,150.733221 C147.815017,154.017114 153.705199,162.905369 155.411522,175" id="Fill-109" fill="@color0"></path>
            <path d="M113,75.9995126 C113,68.8203427 107.179439,63 100,63 C92.8205609,63 87,68.8203427 87,75.9995126 C87,83.1786826 92.8205609,89 100,89 C107.179439,89 113,83.1786826 113,75.9995126 L113,75.9995126 Z M108,107.999505 C108,103.58107 104.419698,100 100,100 C95.5822816,100 92,103.58107 92,107.999505 C92,112.41893 95.5822816,116 100,116 C104.419698,116 108,112.41794 108,107.999505 L108,107.999505 Z M121.222728,151.071148 L78.7509634,151.071148 C62.3282144,118.314353 54.9167789,63.6313551 99.8763542,25 C145.148906,63.3763759 137.682474,116.671042 121.222728,151.071148 L121.222728,151.071148 Z M108.885668,169 L91.0470267,169 L84.9494912,158.325005 L114.983203,158.325005 L108.885668,169 Z" id="Fill-110" fill="#545658"></path>
        </g>
    </g>
</svg>