<?xml version="1.0" encoding="UTF-8" standalone="no"?>
<svg width="200px" height="200px" viewBox="0 0 200 200" version="1.1" xmlns="http://www.w3.org/2000/svg" xmlns:xlink="http://www.w3.org/1999/xlink">
    <!-- Generator: Sketch 3.7.2 (28276) - http://www.bohemiancoding.com/sketch -->
    <title>cog</title>
    <desc>Created with Sketch.</desc>
    <defs></defs>
    <g id="Page-1" stroke="none" stroke-width="1" fill="none" fill-rule="evenodd">
        <g id="cog">
            <g id="Group" transform="translate(25.000000, 25.000000)">
                <path d="M75,108.509 C56.488,108.509 41.488,93.509 41.488,75 C41.488,56.489 56.488,41.488 75,41.488 C93.508,41.488 108.51,56.488 108.51,75 C108.51,93.509 93.508,108.509 75,108.509 L75,108.509 Z M142.979,60.638 L128.744,59.744 C127.531,55.437 125.809,51.35 123.639,47.552 L133.215,37.084 C135.957,34.339 135.957,29.904 133.215,27.159 L122.842,16.787 C120.096,14.041 115.66,14.041 112.914,16.787 L102.445,26.36 C98.65,24.192 94.562,22.468 90.254,21.257 L89.361,7.022 C89.361,3.128 86.232,0 82.34,0 L67.658,0 C63.768,0 60.637,3.128 60.637,7.022 L59.744,21.257 C55.438,22.468 51.35,24.192 47.555,26.36 L37.084,16.787 C34.338,14.041 29.904,14.041 27.158,16.787 L16.787,27.159 C14.043,29.905 14.043,34.339 16.787,37.084 L26.361,47.552 C24.191,51.35 22.469,55.437 21.254,59.744 L7.023,60.638 C3.129,60.638 0,63.765 0,67.659 L0,82.339 C0,86.234 3.129,89.359 7.023,89.359 L21.254,90.255 C22.469,94.562 24.191,98.65 26.361,102.447 L16.787,112.913 C14.043,115.659 14.043,120.095 16.787,122.841 L27.158,133.212 C29.904,135.956 34.338,135.956 37.084,133.212 L47.555,123.638 C51.35,125.806 55.438,127.532 59.744,128.743 L60.637,142.978 C60.637,146.872 63.768,149.999 67.658,149.999 L82.34,149.999 C86.232,149.999 89.361,146.87 89.361,142.978 L90.254,128.743 C94.564,127.53 98.65,125.806 102.445,123.638 L112.914,133.212 C115.66,135.956 120.096,135.956 122.842,133.212 L133.215,122.841 C135.957,120.095 135.957,115.659 133.215,112.913 L123.639,102.447 C125.809,98.65 127.533,94.562 128.744,90.255 L142.979,89.359 C146.869,89.359 150,86.234 150,82.339 L150,67.659 C150,63.765 146.869,60.638 142.979,60.638 L142.979,60.638 Z M75,54.256 C63.543,54.256 54.256,63.544 54.256,75 C54.256,86.456 63.543,95.743 75,95.743 C86.455,95.743 95.744,86.456 95.744,75 C95.744,63.543 86.455,54.256 75,54.256 L75,54.256 Z" id="Fill-4" fill="#545658"></path>
                <path d="M75.000992,63 C81.6274283,63 87,68.3723497 87,75.000496 C87,81.6276503 81.6274283,87 75.000992,87 C68.3725717,87 63,81.6276503 63,75.000496 C63,68.3723497 68.3725717,63 75.000992,63" id="Fill-6" fill="@color0"></path>
            </g>
        </g>
    </g>
</svg>