<?xml version="1.0" encoding="UTF-8" standalone="no"?>
<svg width="200px" height="200px" viewBox="0 0 200 200" version="1.1" xmlns="http://www.w3.org/2000/svg" xmlns:xlink="http://www.w3.org/1999/xlink">
    <!-- Generator: Sketch 3.7.2 (28276) - http://www.bohemiancoding.com/sketch -->
    <title>cron-job</title>
    <desc>Created with Sketch.</desc>
    <defs></defs>
    <g id="Page-1" stroke="none" stroke-width="1" fill="none" fill-rule="evenodd">
        <g id="cron-job">
            <path d="M168.5,100 C168.5,106.5125 167.5375,112.78125 165.84375,118.75 L152.7125,118.75 C154.80625,112.875 156,106.58125 156,100 C156,68.9875 130.76875,43.75 99.75,43.75 C89.0875,43.75 79.15,46.775 70.6625,51.9625 L82.26875,68.75 L38.55625,68.75 L52.00625,25 L63.56875,41.70625 C74.0875,35.15 86.43125,31.25 99.75,31.25 C137.7125,31.25 168.5,62.03125 168.5,100 L168.5,100 Z M128.7875,148.075 C120.30625,153.2375 110.3875,156.25 99.75,156.25 C68.73125,156.25 43.5,131.0125 43.5,100 C43.5,93.41875 44.69375,87.125 46.78125,81.25 L33.65625,81.25 C31.9625,87.21875 31,93.4875 31,100 C31,137.96875 61.78125,168.75 99.75,168.75 C113.04375,168.75 125.36875,164.86875 135.875,158.33125 L147.45625,175 L160.90625,131.31875 L117.19375,131.31875 L128.7875,148.075 L128.7875,148.075 Z" id="Shape" fill="#545658"></path>
            <path d="M124.7132,118.538 C128.6068,113.3548 131,106.9812 131,100 C131,82.8818 117.1306,69 100,69 C82.8694,69 69,82.8818 69,100 C69,117.1182 82.8694,131 100,131 C110.075,131 118.9286,126.1268 124.5892,118.693 L124.8,118.6 L124.7132,118.538 Z M124.8,100 C124.8,105.5738 122.878,110.6764 119.7656,114.8242 L100,100 L100,75.2 C113.6772,75.2 124.8,86.3228 124.8,100 Z" id="Combined-Shape" fill="@color0"></path>
        </g>
    </g>
</svg>