<?xml version="1.0" encoding="UTF-8" standalone="no"?>
<svg width="200px" height="200px" viewBox="0 0 200 200" version="1.1" xmlns="http://www.w3.org/2000/svg" xmlns:xlink="http://www.w3.org/1999/xlink">
    <!-- Generator: Sketch 3.7.2 (28276) - http://www.bohemiancoding.com/sketch -->
    <title>volume</title>
    <desc>Created with Sketch.</desc>
    <defs></defs>
    <g id="Page-1" stroke="none" stroke-width="1" fill="none" fill-rule="evenodd">
        <g id="volume">
            <path d="M88.6718517,106.562733 L73.9176789,91.8073055 L82.807474,82.9173585 L97.5616469,97.6727859 L88.6718517,106.562733 Z M131.111902,77.8879421 C113.930779,60.7045205 86.0714764,60.7035181 68.887346,77.8879421 C51.704218,95.0693587 51.704218,122.929138 68.887346,140.113562 C86.068469,157.293976 113.927772,157.296983 131.111902,140.113562 C148.296033,122.929138 148.296033,95.0693587 131.111902,77.8879421 L131.111902,77.8879421 Z" id="Fill-107" fill="#545658"></path>
            <path d="M164.156,113.831909 C163.76,119.468106 162.646,124.90964 160.894,130.057172 L170.894,134.289588 C169.879,137.182441 168.693,139.997027 167.347,142.718296 L157.336,138.481867 C154.942,143.189902 151.99,147.564803 148.567,151.521279 L156.255,159.234551 C154.237,161.519333 152.084,163.680694 149.806,165.705591 L135.656,151.506228 C147.604,141.337593 155.203,126.171939 155.203,109.256324 C155.203,78.7132942 130.438,53.8646593 99.999,53.8646593 C69.56,53.8646593 44.796,78.7132942 44.796,109.256324 C44.796,126.171939 52.394,141.33659 64.343,151.506228 L48.901,167 L42.453,160.52896 L51.431,151.520276 C47.916,147.458441 44.894,142.955103 42.468,138.102575 L32.429,142.271775 C31.102,139.542479 29.935,136.720869 28.939,133.817982 L38.971,129.650788 C37.3,124.622662 36.228,119.320603 35.843,113.831909 L25,113.831909 L25,104.681743 L35.842,104.681743 C36.236,99.0455461 37.354,93.6050156 39.105,88.4564796 L29.105,84.2250673 C30.12,81.329204 31.305,78.5156209 32.651,75.7953556 L42.66,80.0297781 C45.053,75.3217425 48.005,70.9448347 51.427,66.9893623 L43.744,59.279101 C45.761,56.994319 47.915,54.8339608 50.192,52.809064 L57.876,60.5193252 C61.925,56.9913087 66.417,53.9660045 71.255,51.5297064 L67.098,41.4553932 C69.818,40.123858 72.631,38.9528695 75.523,37.9534656 L79.675,48.0187481 C84.686,46.3400303 89.969,45.26537 95.44,44.8790542 L95.44,34 L104.559,34 L104.559,44.8780508 C110.177,45.2754042 115.598,46.3962217 120.729,48.1542095 L124.946,38.1200329 C127.832,39.1385018 130.636,40.3275517 133.347,41.6781519 L129.127,51.7213592 C133.82,54.1225377 138.181,57.0836232 142.124,60.5193252 L149.808,52.8100674 C152.085,54.8339608 154.238,56.994319 156.256,59.279101 L148.572,66.9883588 C152.088,71.0511969 155.103,75.558549 157.53,80.4130837 L167.57,76.2428799 C168.897,78.9721759 170.065,81.7937864 171.06,84.6966736 L161.029,88.8618603 C162.703,93.8909896 163.773,99.1920451 164.159,104.681743 L175,104.681743 L175,113.831909 L164.156,113.831909 Z" id="Fill-108" fill="@color0"></path>
        </g>
    </g>
</svg>