<?xml version="1.0" encoding="utf-8"?>
<!-- Generator: Adobe Illustrator 16.0.4, SVG Export Plug-In . SVG Version: 6.00 Build 0)  -->
<!DOCTYPE svg PUBLIC "-//W3C//DTD SVG 1.1//EN" "http://www.w3.org/Graphics/SVG/1.1/DTD/svg11.dtd">
<svg version="1.1"
	 id="svg2" xmlns:dc="http://purl.org/dc/elements/1.1/" xmlns:cc="http://creativecommons.org/ns#" xmlns:rdf="http://www.w3.org/1999/02/22-rdf-syntax-ns#" xmlns:svg="http://www.w3.org/2000/svg" xmlns:sodipodi="http://sodipodi.sourceforge.net/DTD/sodipodi-0.dtd" xmlns:inkscape="http://www.inkscape.org/namespaces/inkscape" sodipodi:docname="China Unicom.svg" inkscape:version="0.48.1 r9760"
	 xmlns="http://www.w3.org/2000/svg" xmlns:xlink="http://www.w3.org/1999/xlink" x="0px" y="0px" width="280px" height="160px"
	 viewBox="-111.912 -63.52 280 160" enable-background="new -111.912 -63.52 280 160" xml:space="preserve">
<sodipodi:namedview  fit-margin-left="0" fit-margin-top="10" showgrid="false" inkscape:cy="31.448829" inkscape:cx="160.25416" inkscape:zoom="2.8" borderopacity="1.0" bordercolor="#666666" pagecolor="#ffffff" id="base" inkscape:window-maximized="1" inkscape:window-y="26" inkscape:window-x="0" inkscape:window-height="712" inkscape:window-width="1366" fit-margin-bottom="0" inkscape:current-layer="layer1" inkscape:document-units="px" inkscape:pageopacity="0.0" fit-margin-right="10" inkscape:pageshadow="2">
	</sodipodi:namedview>
<g id="layer1" transform="translate(-281.04044,-630.11384)" inkscape:label="Layer 1" inkscape:groupmode="layer">
	<path id="path4265" inkscape:connector-curvature="0" fill="#D91920" d="M393.911,668.506c-2.55,2.552-6.682,2.552-9.239,0
		c-2.46-2.456-4.618-4.623-4.618-4.623l6.986-6.99l-8.788-8.785l-6.987,6.992l-6.994-6.992l-8.788,8.785l6.993,6.99
		c0,0-2.168,2.167-4.622,4.623c-2.553,2.552-6.696,2.552-9.244,0c-2.552-2.549-2.552-6.691,0-9.239
		c2.683-2.68,22.56-22.749,22.56-22.749s20.062,20.069,22.741,22.749C396.465,661.815,396.465,665.957,393.911,668.506
		L393.911,668.506z M348.608,596.387c-2.55-2.552-2.55-6.692,0-9.242c2.55-2.553,6.693-2.553,9.246,0
		c2.454,2.458,4.62,4.621,4.62,4.621l-6.991,6.993l8.788,8.78l6.994-6.989l6.987,6.989l8.788-8.78l-6.986-6.993
		c0,0,2.158-2.163,4.618-4.621c2.558-2.553,6.689-2.553,9.239,0c2.555,2.549,2.555,6.69,0,9.242
		c-2.68,2.677-22.743,22.744-22.743,22.744S351.293,599.065,348.608,596.387L348.608,596.387z M380.045,627.826
		c0,0,20.598-20.591,22.654-22.651c7.406-7.41,7.406-19.412,0-26.821c-7.399-7.404-19.411-7.404-26.813,0
		c-2.91,2.906-4.621,4.621-4.621,4.621s-1.721-1.715-4.62-4.621c-7.413-7.404-19.416-7.404-26.824,0
		c-7.407,7.409-7.407,19.411,0,26.821c2.058,2.06,22.655,22.651,22.655,22.651s-20.597,20.597-22.655,22.651
		c-7.407,7.406-7.407,19.412,0,26.818c7.408,7.407,19.411,7.407,26.824,0c2.899-2.903,4.62-4.625,4.62-4.625
		s1.711,1.722,4.621,4.625c7.402,7.407,19.414,7.407,26.813,0c7.406-7.406,7.406-19.412,0-26.818
		C400.642,648.423,380.045,627.826,380.045,627.826z M429.787,632.446c-2.551,2.55-6.691,2.55-9.245,0
		c-2.073-2.076-4.62-4.62-4.62-4.62s2.547-2.546,4.62-4.621c2.554-2.553,6.694-2.553,9.245,0c1.275,1.276,1.914,2.946,1.914,4.621
		C431.701,629.501,431.062,631.171,429.787,632.446z M438.576,614.417c-7.408-7.41-19.419-7.41-26.824,0
		c-2.119,2.124-4.619,4.621-4.619,4.621l-6.991-6.986l-8.785,8.782l6.992,6.993l-6.992,6.989l8.785,8.785l6.991-6.989
		c0,0,2.5,2.502,4.619,4.625c7.405,7.405,19.416,7.405,26.824,0c3.701-3.704,5.553-8.554,5.553-13.41
		C444.129,622.969,442.277,618.12,438.576,614.417L438.576,614.417z M321.795,632.446c-2.557,2.55-6.696,2.55-9.247,0
		c-1.275-1.275-1.908-2.945-1.908-4.62c0-1.674,0.633-3.345,1.908-4.621c2.55-2.553,6.69-2.553,9.247,0
		c2.073,2.074,4.62,4.621,4.62,4.621S323.868,630.371,321.795,632.446z M342.192,643.6l8.789-8.785l-6.998-6.989l6.998-6.993
		l-8.789-8.782l-6.988,6.986c0,0-2.498-2.498-4.62-4.621c-7.407-7.41-19.418-7.41-26.823,0c-3.701,3.703-5.553,8.553-5.553,13.41
		c0,4.855,1.852,9.706,5.553,13.409c7.405,7.405,19.416,7.405,26.823,0c2.122-2.123,4.62-4.625,4.62-4.625L342.192,643.6"/>
	<path id="path4267" inkscape:connector-curvature="0" fill="#231F20" d="M270.372,683.172c-1.162,1.227-2.687,1.816-4.546,1.816
		c-1.757,0-3.213-0.63-4.37-1.88c-1.13-1.248-1.691-2.866-1.691-4.866c0-1.843,0.573-3.406,1.728-4.683
		c1.173-1.26,2.617-1.86,4.365-1.86c1.861,0,3.353,0.6,4.514,1.854c1.155,1.253,1.726,2.873,1.726,4.799
		C272.097,680.299,271.527,681.906,270.372,683.172L270.372,683.172z M271.802,667.877v2.435c-2.021-1.99-4.313-2.981-6.88-2.981
		c-2.955,0-5.418,1.05-7.385,3.11c-1.966,2.086-2.955,4.716-2.955,7.85c0,3.151,0.988,5.83,2.955,7.933
		c1.988,2.101,4.487,3.133,7.531,3.133c2.42,0,4.652-0.919,6.733-2.81v2.197h5.118v-20.866H271.802"/>
	<path id="path4269" inkscape:connector-curvature="0" fill="#231F20" d="M201.457,658.438h5.296v11.853
		c0,0,1.978-2.733,6.093-2.733c3.811,0,7.277,2.533,7.277,8.913v12.401h-4.826V676.12c0-2.187-0.883-4.957-4.013-4.957
		c-2.98,0-4.515,2.237-4.531,4.957v12.751h-5.296V658.438"/>
	<path id="path4271" inkscape:connector-curvature="0" fill="#231F20" d="M199.547,683.674c-1.175,1.667-2.645,3.002-4.456,4.024
		c-2.135,1.214-4.53,1.837-7.119,1.837c-3.824,0-7.083-1.366-9.788-4.046c-2.707-2.687-4.056-5.934-4.056-9.787
		c0-4.117,1.524-7.557,4.582-10.28c2.682-2.412,5.759-3.6,9.239-3.6c2.517,0,4.875,0.616,7.097,1.865
		c1.823,1.035,3.326,2.352,4.493,3.995l-4.543,3.26c-0.32-0.78-0.784-1.45-1.316-2.088c-1.514-1.742-3.43-2.615-5.789-2.615
		c-2.288,0-4.191,0.873-5.724,2.656c-1.517,1.767-2.277,4.023-2.277,6.783c0,2.852,0.752,5.129,2.264,6.905
		c1.493,1.755,3.398,2.626,5.72,2.626c2.309,0,4.223-0.883,5.762-2.679c0.564-0.639,1.021-1.353,1.361-2.136
		C194.996,680.396,198.372,682.827,199.547,683.674"/>
	<path id="path4273" inkscape:connector-curvature="0" fill="#231F20" d="M244.813,667.557c-5.043-0.073-6.68,2.733-6.68,2.733
		l-0.25-2.46h-4.548v21.013h5.271v-12.746c0.028-2.696,1.585-4.957,4.546-4.957c3.14,0,4.044,2.783,4.044,4.957v12.746h4.892V676.47
		C252.09,670.07,248.605,667.58,244.813,667.557"/>
	<path id="path4275" inkscape:connector-curvature="0" fill="#D91920" d="M224.099,688.842h4.942v-21.079h-4.942V688.842z"/>
	<path id="path4277" inkscape:connector-curvature="0" fill="#D91920" d="M226.534,665.624c-1.717,0-2.86-1.272-2.86-2.783
		c0-1.62,1.194-2.83,2.905-2.83c1.77,0,2.865,1.21,2.91,2.83c0,1.511-1.141,2.783-2.91,2.783H226.534"/>
	<path id="path4279" inkscape:connector-curvature="0" fill="#D91920" d="M226.534,696.662c-1.717,0-2.86-1.246-2.86-2.753
		c0-1.618,1.194-2.843,2.905-2.843c1.77,0,2.865,1.225,2.91,2.843c0,1.507-1.141,2.753-2.91,2.753H226.534"/>
	<path id="path4281" inkscape:connector-curvature="0" fill="#231F20" d="M301.425,698.69c-3.135-0.07-5.308,1.222-7.15,3.261
		c-1.243-2.259-3.303-3.201-5.468-3.261c-4.438-0.111-6.385,2.711-6.385,2.711l-0.171-2.545h-4.776v21.015h5.319v-12.686
		c0.02-2.696,1.432-4.91,4.177-4.91c2.865,0,3.693,2.757,3.693,4.937v12.659h4.825v-12.404v0.025
		c0.012-3.528,1.66-5.217,4.098-5.217c2.876,0,3.691,2.757,3.691,4.937v12.659h4.827V707.56
		C308.106,701.204,304.905,698.773,301.425,698.69"/>
	<path id="path4283" inkscape:connector-curvature="0" fill="#D91920" d="M224.099,719.871h4.942v-21.015h-4.942V719.871z"/>
	<path id="path4285" inkscape:connector-curvature="0" fill="#231F20" d="M264.376,702.05c-1.691,0-3.095,0.691-4.208,2.05
		c-1.118,1.371-1.687,3.132-1.687,5.271c0,2.18,0.557,3.973,1.665,5.324c1.117,1.356,2.5,2.037,4.207,2.037s3.105-0.681,4.229-2.059
		c1.14-1.373,1.688-3.149,1.688-5.303c0-2.16-0.548-3.92-1.655-5.295C267.507,702.742,266.104,702.05,264.376,702.05z
		 M263.992,698.378c1.972,0,3.823,0.506,5.546,1.484c1.738,0.992,3.095,2.332,4.058,3.993c0.98,1.705,1.468,3.529,1.468,5.465
		c0,1.963-0.488,3.829-1.48,5.54c-0.968,1.71-2.303,3.057-3.991,4c-1.691,0.99-3.555,1.453-5.577,1.453
		c-3.01,0-5.561-1.057-7.679-3.189c-2.124-2.115-3.167-4.704-3.167-7.753c0-3.253,1.202-5.979,3.577-8.146
		C258.864,699.338,261.262,698.378,263.992,698.378"/>
	<path id="path4287" inkscape:connector-curvature="0" fill="#231F20" d="M212.847,698.579c-5.012-0.063-6.667,2.72-6.667,2.72
		l-0.254-2.442h-4.548v21.015h5.292v-12.73c0.012-2.708,1.562-4.945,4.541-4.945c3.119,0,4.02,2.757,4.02,4.945v12.73h4.895v-12.355
		C220.124,701.108,216.658,698.645,212.847,698.579"/>
	<path id="path4289" inkscape:connector-curvature="0" fill="#231F20" d="M185.693,720.153c5.032,0.067,6.675-2.735,6.675-2.735
		l0.253,2.453h4.553v-21.015h-5.283v12.735c-0.021,2.71-1.557,4.956-4.543,4.956c-3.129,0-4.366-2.773-4.366-4.956v-12.735h-5.283
		v12.362C177.698,717.621,181.891,720.106,185.693,720.153"/>
	<path id="path4291" inkscape:connector-curvature="0" fill="#231F20" d="M252.783,715.752c-0.937,1.321-2.11,2.39-3.535,3.181
		c-1.703,0.979-3.596,1.44-5.658,1.44c-3.015,0-5.598-1.044-7.761-3.175c-2.148-2.144-3.203-4.727-3.203-7.776
		c0-3.246,1.21-5.96,3.64-8.144c2.111-1.89,4.548-2.836,7.316-2.836c1.987,0,3.856,0.479,5.621,1.47
		c1.443,0.817,2.637,1.867,3.56,3.157l-3.931,2.826c-0.25-0.567-0.57-1.083-0.969-1.537c-1.088-1.312-2.481-1.97-4.173-1.97
		c-1.665,0-3.031,0.681-4.146,1.97c-1.095,1.316-1.655,3.004-1.655,5.063c0,2.105,0.56,3.833,1.641,5.123
		c1.089,1.316,2.469,1.953,4.142,1.953c1.662,0,3.05-0.637,4.16-1.977c0.416-0.477,0.75-1,1-1.592L252.783,715.752"/>
	<path id="path4293" inkscape:connector-curvature="0" fill="#231F20" d="M408.562,699.331c-1.978-2.606-4.005-4.028-4.005-4.028
		l-1.978,1.427l3.32,4.549L408.562,699.331L408.562,699.331z M420.908,703.319h3.981v1.696h-3.981V703.319z M424.889,709.131h-3.981
		v-1.696h3.981V709.131z M417.478,705.015h-3.978v-1.696h3.978V705.015z M417.478,709.131h-3.978v-1.696h3.978V709.131z
		 M418.651,699.832c-1.63-1.106-3.452-1.953-3.452-1.953l-1.36,1.736l1.363,1.186h-5.132v15.101h1.057
		c1.079,0,2.374-0.724,2.374-2.271v-2.079h3.978v4.35h1.058c1.341,0,2.277-0.67,2.372-2.276v-2.073h3.981v1.014
		c0,0.503-0.552,0.821-1.005,0.821h-1.593l0.72,2.515h2.481c1.669,0,3.019-1.348,3.019-3.018v-10.016
		c0-1.139-0.924-2.067-2.059-2.067h-3.993l5.25-3.168v-2.895h-17.834v2.519h13.037L418.651,699.832L418.651,699.832z
		 M409.632,717.078c-0.902,0-1.634-0.729-1.634-1.633v-13.04h-5.674v2.519h1.89v11.518c0,1.964,1.728,3.155,3.049,3.155h21.642
		v-2.519H409.632"/>
	<path id="path4295" inkscape:connector-curvature="0" fill="#231F20" d="M394.759,708.775h4.345v-2.52h-4.87v-3.87h4.87v-2.516
		h-3.158l2.889-3.604l-2.735-1.964l-3.608,5.567h-2.578l2.104-1.518c-1.822-2.507-3.344-4.042-3.344-4.042l-2.018,1.188l2.583,4.371
		h-3.164v2.516h4.189v3.87h-4.189v2.52h3.726l-4.406,11.299h1.895c1.002,0,2.023-0.69,2.437-1.598l2.69-6.741l3.725,8.339h3.686
		L394.759,708.775L394.759,708.775z M380.893,706.872h-3.061v-3.104h3.061V706.872z M380.885,712.456l-3.053,0.854v-3.928h3.061
		L380.885,712.456z M386.188,710.967l-1.705,0.478v-14.1c0-1.55-0.941-2.519-2.121-2.519h-8.972v2.519h7.503v3.906h-3.061v-2.592
		h-3.4v15.604l-1.502,0.428v2.833l7.955-2.236v5.1h1.411c1.177,0,1.923-0.701,2.187-2.043v-4.058l1.705-0.48V710.967"/>
	<path id="path4297" inkscape:connector-curvature="0" fill="#231F20" d="M334.856,708.985c0,0.905-0.731,1.628-1.625,1.628h-5.076
		v-10.274h6.701V708.985L334.856,708.985z M336.43,697.821h-8.276v-3.511h-4.292v3.511h-5.388v2.518h5.388v10.274h-6.707v-12.792
		h-4.293v15.311h11v7.256h0.698c2.408-0.073,3.497-1.14,3.593-2.97v-4.286h7.278c2.003,0,3.636-1.58,3.72-3.563v-9.173
		C339.069,698.962,337.883,697.821,336.43,697.821"/>
	<path id="path4299" inkscape:connector-curvature="0" fill="#231F20" d="M363.629,712.129h-1.905l1.255-1.555
		c-1.71-1.538-2.986-2.363-2.986-2.363l-1.545,1.539l2.164,2.379h-2.918v-4.215h5.832v-2.517h-5.832v-3.126h5.832v-2.511h-15.096
		v2.511h5.296v3.126h-5.296v2.517h5.296v4.215h-5.396v2.519h15.301V712.129z M366.187,694.738h-17.859v2.519h16.621v18.265
		c0,0.899-0.731,1.63-1.633,1.63h-16.309v-22.413h-3.97v24.934h22.291c1.987,0,3.595-1.606,3.595-3.594v-18.616
		C368.919,695.959,367.692,694.738,366.187,694.738"/>
</g>
</svg>
