<?xml version="1.0" encoding="UTF-8" standalone="no"?>
<svg width="200px" height="200px" viewBox="0 0 200 200" version="1.1" xmlns="http://www.w3.org/2000/svg" xmlns:xlink="http://www.w3.org/1999/xlink">
    <!-- Generator: Sketch 3.7.2 (28276) - http://www.bohemiancoding.com/sketch -->
    <title>measurement</title>
    <desc>Created with Sketch.</desc>
    <defs></defs>
    <g id="Page-1" stroke="none" stroke-width="1" fill="none" fill-rule="evenodd">
        <g id="measurement">
            <path d="M162.25,124.794118 L74.9558824,124.794118 L74.9558824,37.5 L56.25,37.5 L56.25,43.7352941 L56.25,56.2058824 L56.25,143.5 L143.544118,143.5 L156.014706,143.5 L162.25,143.5 L162.25,124.794118 Z M175,112.5 L175,156.25 L156.25,156.25 L156.25,175 L143.75,175 L143.75,156.25 L43.75,156.25 L43.75,56.25 L25,56.25 L25,43.75 L43.75,43.75 L43.75,25 L87.5,25 L87.5,28.87 L87.5,43.75 L87.5,112.5 L156.25,112.5 L171.13,112.5 L175,112.5 Z" id="Fill-86" fill="#ffffff"></path>
            <path d="M62,49.2834225 L74.4668435,49.2834225 L74.4668435,43 L62,43 L62,49.2834225 Z M62,67.3796791 L74.4668435,67.3796791 L74.4668435,61.0962567 L62,61.0962567 L62,67.3796791 Z M62,86.4812834 L74.4668435,86.4812834 L74.4668435,80.197861 L62,80.197861 L62,86.4812834 Z M62,105.582888 L74.4668435,105.582888 L74.4668435,99.2994652 L62,99.2994652 L62,105.582888 Z M62,124.684492 L74.4668435,124.684492 L74.4668435,118.40107 L62,118.40107 L62,124.684492 Z M149.766578,137 L156,137 L156,124.433155 L149.766578,124.433155 L149.766578,137 Z M130.816976,137 L137.050398,137 L137.050398,124.433155 L130.816976,124.433155 L130.816976,137 Z M111.867374,137 L118.100796,137 L118.100796,124.433155 L111.867374,124.433155 L111.867374,137 Z M92.9177719,137 L99.1511936,137 L99.1511936,124.433155 L92.9177719,124.433155 L92.9177719,137 Z M74.9655172,137 L81.198939,137 L81.198939,124.433155 L74.9655172,124.433155 L74.9655172,137 Z" id="Combined-Shape" fill="@color0"></path>
        </g>
    </g>
</svg>