<?xml version="1.0" encoding="UTF-8" standalone="no"?>
<svg width="200px" height="200px" viewBox="0 0 200 200" version="1.1" xmlns="http://www.w3.org/2000/svg" xmlns:xlink="http://www.w3.org/1999/xlink">
    <!-- Generator: Sketch 3.7.2 (28276) - http://www.bohemiancoding.com/sketch -->
    <title>keyboard</title>
    <desc>Created with Sketch.</desc>
    <defs></defs>
    <g id="Page-1" stroke="none" stroke-width="1" fill="none" fill-rule="evenodd">
        <g id="keyboard">
            <path d="M25,36.2107 L25,95.3347 L25,115.3357 L61.67,115.3357 L97.7,115.3357 L93.078,104.4097 L66.287,104.4097 L35.923,104.4097 L35.923,95.3347 L35.928,95.3347 L35.928,47.1337 L164.072,47.1337 L164.072,95.3347 L164.077,95.3347 L164.077,104.4097 L157.674,104.4097 C160.203,107.1147 161.601,110.3877 162.562,112.6537 C162.949,113.5687 163.295,114.4637 163.604,115.3357 L175,115.3357 L175,95.3347 L175,36.2107 L25,36.2107 Z M96.018,137.9207 C100.418,140.5867 114.273,147.9597 128.503,164.5097 C141.125,159.1657 153.226,154.0597 165.201,148.9817 C159.559,135.6397 163.621,128.0857 158.01,114.8257 C155.512,108.9257 152.975,105.0877 146.766,104.7987 C146.184,104.7717 145.59,104.7397 144.986,104.7167 L146.958,109.3817 C147.453,110.5597 146.91,111.9077 145.734,112.4027 C144.557,112.9067 143.208,112.3497 142.713,111.1847 L140.956,107.0167 C140.331,105.5437 138.891,104.5857 137.285,104.5737 C136.952,104.5737 131.884,104.5737 131.17,104.5757 L133.566,110.2407 C134.059,111.4107 133.511,112.7627 132.333,113.2627 C131.175,113.7497 129.823,113.2067 129.318,112.0307 L127.248,107.1297 C126.618,105.6457 125.16,104.6847 123.56,104.6847 C119.867,104.6847 117.572,104.6677 117.213,104.6847 L119.747,110.8267 C120.244,112.0047 119.696,113.3547 118.528,113.8537 C117.359,114.3487 116.004,113.8007 115.511,112.6277 L105.218,88.3577 C103.874,85.1597 100.179,83.6517 96.971,85.0127 C93.773,86.3667 92.272,90.0597 93.626,93.2597 L108.802,129.1427 C108.802,129.1427 105.218,126.8407 100.466,125.5367 C96.947,124.5837 93.093,125.1417 91.362,128.3947 C89.538,131.8157 91.818,135.3837 96.018,137.9207 L96.018,137.9207 Z" id="Fill-68" fill="#ffffff"></path>
            <path d="M95.043,80.2175 C96.438,79.6255 97.912,79.3235 99.423,79.3235 C101.883,79.3235 104.185,80.1405 106.074,81.5325 L107.019,81.5325 L107.019,70.0155 L92.981,70.0155 L92.981,81.3615 C93.616,80.9165 94.302,80.5305 95.043,80.2175 L95.043,80.2175 Z M89.074,94.9425 C88.041,92.4995 87.947,89.8955 88.618,87.5235 L78.294,87.5235 L67.329,87.5235 L67.329,99.0345 L71.067,99.0345 L90.805,99.0345 L89.074,94.9425 Z M115.219,99.0345 L128.933,99.0345 L132.671,99.0345 L132.671,87.5235 L121.706,87.5235 L110.337,87.5235 L115.219,99.0345 Z M116.665,64.0135 L116.667,64.0135 L116.667,52.5065 L116.665,52.5065 L102.995,52.5065 L102.992,52.5065 L102.992,64.0135 L102.995,64.0135 L116.665,64.0135 Z M136.322,64.0135 L136.324,64.0135 L136.324,52.5065 L136.322,52.5065 L122.657,52.5065 L122.65,52.5065 L122.65,64.0135 L122.657,64.0135 L136.322,64.0135 Z M132.671,81.5325 L155.983,81.5325 L155.983,70.0145 L132.671,70.0145 L132.671,81.5325 Z M142.317,52.5065 L142.31,52.5065 L142.31,64.0135 L142.317,64.0135 L155.98,64.0135 L155.982,64.0135 L155.982,52.5065 L155.98,52.5065 L142.317,52.5065 Z M77.343,64.0135 L77.35,64.0135 L77.35,52.5065 L77.343,52.5065 L63.678,52.5065 L63.676,52.5065 L63.676,64.0135 L63.678,64.0135 L77.343,64.0135 Z M57.683,64.0135 L57.69,64.0135 L57.69,52.5065 L57.683,52.5065 L44.021,52.5065 L44.018,52.5065 L44.018,64.0135 L44.021,64.0135 L57.683,64.0135 Z M97.005,64.0135 L97.008,64.0135 L97.008,52.5065 L97.005,52.5065 L83.335,52.5065 L83.333,52.5065 L83.333,64.0135 L83.335,64.0135 L97.005,64.0135 Z M73.327,81.5325 L87.36,81.5325 L87.36,70.0135 L73.327,70.0155 L73.327,81.5325 Z M44.017,81.5335 L67.329,81.5335 L67.329,70.0155 L44.017,70.0155 L44.017,81.5335 Z M125.505,70.0135 C125.503,70.0135 125.503,70.0155 125.503,70.0155 L126.673,70.0155 L126.673,81.5325 L121.115,81.5325 L113.011,81.5325 L112.64,81.5325 L112.64,70.0135 L125.505,70.0135 Z" id="Fill-69" fill="#1fa22e"></path>
        </g>
    </g>
</svg>