<?xml version="1.0" encoding="UTF-8" standalone="no"?>
<svg width="200px" height="200px" viewBox="0 0 200 200" version="1.1" xmlns="http://www.w3.org/2000/svg" xmlns:xlink="http://www.w3.org/1999/xlink">
    <!-- Generator: Sketch 3.7.2 (28276) - http://www.bohemiancoding.com/sketch -->
    <title>analyse</title>
    <desc>Created with Sketch.</desc>
    <defs></defs>
    <g id="Page-1" stroke="none" stroke-width="1" fill="none" fill-rule="evenodd">
        <g id="analyse">
            <path d="M64.8553663,111.280941 L74.5972971,53.6791884 L84.5465459,95.1399841 C85.5338222,99.3938264 91.6054202,99.8706007 93.2579254,95.7721008 L102.268205,73.4184235 C102.268205,73.4184235 106.622888,83.2372372 107.446122,84.909855 C108.2764,86.5814958 109.142908,87.6640078 111.945726,87.6640078 L123,87.6640078 L123,78.7772486 L114.918626,78.7772486 L106.276688,59.9778841 C104.653368,56.3356416 99.308389,56.4118473 97.8199267,60.1107557 L90.1763353,79.0664396 L78.4045,28.4590037 C77.2944432,23.6726984 70.240601,23.9413724 69.4385019,28.7208387 L59.6764431,87.1891875 L49.695996,51.1898016 C48.5799008,46.8832016 42.329164,46.6428604 40.9111495,50.9103807 L33.4789016,78.7967886 L25,78.7967886 L25,87.6679158 L37.0807994,87.6679158 C38.7252534,87.6679158 40.5136223,86.3733956 40.9886421,84.8385342 L45.1984041,70.2236453 L55.9125153,111.648292 C57.1282438,116.330059 64.0673568,116.014489 64.8553663,111.280941" id="Fill-30" fill="@color0"></path>
            <path d="M104.294241,124.741649 C104.294241,113.423103 113.577235,104.207002 124.987477,104.207002 C136.402765,104.207002 145.679704,113.423103 145.679704,124.741649 C145.679704,136.068208 136.402765,145.281304 124.987477,145.281304 C113.577235,145.281304 104.294241,136.068208 104.294241,124.741649 L104.294241,124.741649 Z M175,164.204311 L152.858661,142.238318 C156.100998,137.170014 157.976972,131.175191 157.976972,124.741649 C157.976972,106.684061 143.178069,92 124.987477,92 C106.798903,92 92,106.681056 92,124.741649 C92,142.794229 106.798903,157.483298 124.987477,157.483298 C131.142166,157.483298 136.90733,155.803546 141.845007,152.879755 L164.13267,175 L175,164.204311 Z" id="Fill-32" fill="#ffffff"></path>
        </g>
    </g>
</svg>