<?xml version="1.0" encoding="UTF-8" standalone="no"?>
<svg width="200px" height="200px" viewBox="0 0 200 200" version="1.1" xmlns="http://www.w3.org/2000/svg" xmlns:xlink="http://www.w3.org/1999/xlink">
    <!-- Generator: Sketch 3.7.2 (28276) - http://www.bohemiancoding.com/sketch -->
    <title>bulb</title>
    <desc>Created with Sketch.</desc>
    <defs></defs>
    <g id="Page-1" stroke="none" stroke-width="1" fill="none" fill-rule="evenodd">
        <g id="bulb">
            <g id="Group" transform="translate(54.000000, 25.000000)">
                <path d="M62.9500125,115 L31.047988,115 C28.8125469,115 27,116.789851 27,119.000494 C27,121.209162 28.8125469,123 31.047988,123 L62.9500125,123 C65.1854536,123 67,121.209162 67,119.000494 C67,116.789851 65.1854536,115 62.9500125,115" id="Fill-72" fill="#ffffff"></path>
                <path d="M62.0071071,128 L31.9909216,128 C29.7869945,128 28,129.790617 28,132 C28,134.208395 29.7869945,136 31.9909216,136 L62.0071071,136 C64.2110342,136 66,134.208395 66,132 C66,129.790617 64.2110342,128 62.0071071,128" id="Fill-73" fill="#ffffff"></path>
                <path d="M32,142 C39.8758116,148.660878 40.6848677,150 43.8301981,150 L49.8831363,150 C52.9555519,150 53.7146662,148.759598 62,142 L32,142 Z" id="Fill-74" fill="#ffffff"></path>
                <path d="M93,43.9584331 C93,71.2149439 69.2151433,86.4904397 69.2151433,108 L58.3858719,108 C58.3929327,81.4890718 81.9730257,67.5258013 81.9730257,43.9584331 C81.9730257,-0.158185019 11.0259656,-0.226778616 11.0259656,43.9584331 C11.0259656,67.504925 34.1965314,80.8667589 34.734162,108 L23.7848567,108 C23.7848567,86.4894456 0,71.2149439 0,43.9584331 C0,-14.6234811 93,-14.6821336 93,43.9584331" id="Fill-75" fill="#ffffff"></path>
                <polygon id="Fill-76" fill="@color0" points="38.3157832 87 63 50.8351384 48.6439898 50.8351384 55.7741974 26 30 61.7666892 45.6342243 61.7666892"></polygon>
            </g>
        </g>
    </g>
</svg>