<?xml version="1.0" encoding="UTF-8" standalone="no"?>
<svg width="200px" height="200px" viewBox="0 0 200 200" version="1.1" xmlns="http://www.w3.org/2000/svg" xmlns:xlink="http://www.w3.org/1999/xlink">
    <!-- Generator: Sketch 3.7.2 (28276) - http://www.bohemiancoding.com/sketch -->
    <title>c8y-data</title>
    <desc>Created with Sketch.</desc>
    <defs></defs>
    <g id="Page-1" stroke="none" stroke-width="1" fill="none" fill-rule="evenodd">
        <g id="c8y-data">
            <g id="Group" transform="translate(41.000000, 79.000000)">
                <path d="M61.334,16.1941 L61.334,18.9041 L65.983,18.9041 C64.3,18.2361 62.734,17.3191 61.334,16.1941 Z M0.293,44.076 L26.429,44.076 L26.429,25.201 L0.293,25.201 L0.293,44.076 Z M0.41,69.179 L26.539,69.179 L26.539,50.312 L0.41,50.312 L0.41,69.179 Z M26.4009,0.7888 C24.9009,0.7718 23.2159,0.5298 21.5389,0.0198 L0.4539,0.0198 L0.4539,18.9038 L26.5899,18.9038 L26.5899,0.7888 L26.4009,0.7888 Z M56.8696,10.9128 C56.3936,10.0548 55.9796,9.1538 55.6446,8.2128 C46.4396,8.1968 45.6616,8.1328 45.2266,8.0958 C44.7576,8.0568 44.2956,7.9538 43.8576,7.7938 C43.3036,7.5928 38.7636,5.8168 35.6616,0.8298 C33.7776,0.8218 32.1166,0.8138 30.7326,0.8078 L30.7326,18.9038 L56.8696,18.9038 L56.8696,10.9128 Z M0.257,94.36 L26.401,94.36 L26.401,75.475 L0.257,75.475 L0.257,94.36 Z M105.8203,0.0202 C104.0993,5.8062 98.0533,8.0692 93.7683,8.1172 L91.6143,8.1272 L91.6143,18.9042 L117.7433,18.9042 L117.7433,0.0202 L105.8203,0.0202 Z M79.1748,18.904 L87.4628,18.904 L87.4628,12.24 C85.4388,15.239 82.5468,17.57 79.1748,18.904 Z" id="Combined-Shape" fill="#ffffff"></path>
                <path d="M61.1586,69.1976 L87.3076,69.1976 L87.3076,50.3196 L61.1586,50.3196 L61.1586,69.1976 Z M30.7466,44.1196 L56.8846,44.1196 L56.8846,25.2446 L30.7466,25.2446 L30.7466,44.1196 Z M61.1586,94.2076 L87.3076,94.2076 L87.3076,75.3286 L61.1586,75.3286 L61.1586,94.2076 Z M61.1586,44.0756 L87.3076,44.0756 L87.3076,25.2006 L61.1586,25.2006 L61.1586,44.0756 Z M91.4456,69.1976 L117.5746,69.1976 L117.5746,50.3196 L91.4456,50.3196 L91.4456,69.1976 Z M30.7466,69.2416 L56.8846,69.2416 L56.8846,50.3636 L30.7466,50.3636 L30.7466,69.2416 Z M91.4456,44.0756 L117.5746,44.0756 L117.5746,25.2006 L91.4456,25.2006 L91.4456,44.0756 Z M91.4456,94.2076 L117.5746,94.2076 L117.5746,75.3286 L91.4456,75.3286 L91.4456,94.2076 Z M30.7466,94.2486 L56.8846,94.2486 L56.8846,75.3716 L30.7466,75.3716 L30.7466,94.2486 Z" id="Fill-63" fill="@color0"></path>
            </g>
            <path d="M113.407221,92.3599272 C106.282946,92.3599272 100.267446,87.3093784 98.9383121,80.5469801 C88.8357015,80.54105 86.9312418,80.4837247 86.4027791,80.4402366 C86.2173186,80.4244228 86.0368437,80.3868649 85.8613542,80.3226211 C85.648972,80.2455286 80.9865355,78.5109468 78.482819,73.2538295 C71.8929894,73.228132 67.382112,73.206388 67.382112,73.206388 C63.3937146,73.1638883 55.8706,71.0191347 55.8706,63.2159874 C55.8706,59.9474619 56.904592,57.3816646 58.9386747,55.5907459 C60.8770358,53.8848267 63.3139466,53.3095978 65.1167022,53.1386105 C65.1565862,51.066996 65.7937327,48.115736 68.5606834,45.6922633 C71.2747878,43.3112903 74.5033955,43.0671639 76.7458719,43.2865811 C77.2992621,36.9076688 80.9685877,27.5577292 92.4013288,25.6827994 C105.567029,23.5222319 112.939581,32.6646148 115.763366,39.4220712 C120.32709,37.3890029 126.465234,37.6094085 131.624226,40.1752058 C137.666648,43.1788493 141.129574,48.656372 141.129574,55.2042949 C141.129574,58.707063 140.426619,61.8619263 139.03068,64.6293503 C141.7049,65.6918435 143.8706,68.0490957 143.8706,72.2486616 C143.8706,78.6532714 137.743425,80.4145391 134.503849,80.4491319 L127.889092,80.4777945 C126.589871,87.278739 120.568388,92.3599272 113.407221,92.3599272 Z M87.0528879,76.341484 C88.0838886,76.3800303 91.4251685,76.4185766 100.768987,76.4185766 C101.873773,76.4185766 102.785121,77.2715362 102.847939,78.3617036 C103.179973,83.8955632 107.815488,88.2315236 113.405227,88.2315236 C119.019893,88.2315236 123.66139,83.8738191 123.964509,78.3083318 C124.025332,77.2161877 124.933689,76.360263 126.036481,76.3553212 L134.469947,76.3167749 C134.462968,76.3167749 135.977562,76.2802054 137.398428,75.649628 C138.969857,74.9528302 139.703722,73.8715581 139.703722,72.2476732 C139.703722,71.1575059 139.703722,68.2704896 135.575731,68.068863 C135.568751,68.068863 135.560774,68.0678746 135.553794,68.0678746 C135.474026,68.0649096 135.402235,68.0609561 135.333435,68.0639212 C135.327453,68.0629328 135.325459,68.0639212 135.32147,68.0639212 C135.299534,68.0570026 135.257656,68.0629328 135.223754,68.0609561 C134.962514,68.0639212 134.787025,68.0777583 134.751129,68.0817118 C134.523791,68.1044442 134.296452,68.0866536 134.080082,68.0362469 C133.621416,67.9374104 133.197649,67.693284 132.899516,67.3315422 C132.474752,66.8166037 132.295274,66.1326546 132.470763,65.4902169 C132.486717,65.4160894 133.030136,63.0954067 131.128667,61.4260571 C130.351927,60.7480382 129.337877,60.417924 128.113439,60.436703 C127.150241,60.4633888 126.426347,60.701585 126.416376,60.7055384 C126.261826,60.7589102 126.098301,60.7925146 125.934777,60.8083285 C125.399335,60.874549 124.855915,60.7381545 124.416195,60.4090287 C123.862804,59.9958919 123.559686,59.3366519 123.591593,58.6536912 C123.612533,58.2375893 123.934596,48.3539321 114.516992,46.8081282 C113.824008,46.6944661 113.130027,46.6272572 112.456985,46.6084783 C103.230825,46.4187121 100.214599,55.9534761 99.9892548,56.7066108 C99.9284318,56.9408534 99.8247334,57.1642241 99.6781598,57.3688158 C99.2633665,57.9499748 98.6072751,58.2583449 97.9402157,58.2435195 C97.461608,58.2622984 97.0428263,58.1081134 96.6719053,57.8333477 C95.4464702,56.9289931 93.7105202,56.4308567 91.7731562,56.4308567 C91.7621881,56.4308567 91.7492258,56.4318451 91.7362635,56.4308567 C86.61217,56.4684146 81.1590336,59.8496137 81.1590336,66.04469 C81.1590336,66.9935211 81.393352,68.4859533 81.8520177,70.4765219 C81.8609916,70.5229751 81.8729568,70.5753585 81.8859191,70.6297186 C83.2768727,74.3449853 86.2103389,75.9471261 87.0528879,76.341484 Z M67.4239901,69.076996 C67.4389466,69.076996 71.3475761,69.0967634 77.1905782,69.1224609 C77.0210714,68.1261882 76.9343237,67.0992762 76.9343237,66.0466668 C76.9343237,57.4696291 84.4514557,52.3241972 91.7193128,52.3004764 C93.5489901,52.2994881 95.2829459,52.6009396 96.8144905,53.2058194 C99.007112,48.350967 103.969675,42.3071107 112.448011,42.4771096 C112.018261,41.2525245 110.768896,38.1223703 108.355915,35.2580864 C104.421361,30.5880584 99.2853027,28.7368494 93.0833447,29.7548661 C80.3703281,31.8393294 80.8250054,45.1229646 80.8499328,45.6883098 C80.88184,46.3742356 80.5657595,47.0344639 80.008381,47.4436473 C79.4480112,47.8538191 78.7221228,47.9615509 78.0690228,47.729285 C78.0391098,47.7203897 74.046724,46.3930146 71.3226486,48.7818945 C68.5736457,51.1895534 69.3743165,54.5183691 69.4082178,54.6577286 C69.5747334,55.3159802 69.4072207,56.0246384 68.9535405,56.5326584 C68.5008574,57.0416667 67.8278154,57.3075371 67.1457994,57.2274795 C67.1248603,57.2245144 63.7277429,56.8785864 61.6876776,58.6912491 C60.5789031,59.6786265 60.0384753,61.1572216 60.0384753,63.214999 C60.0384753,68.7854282 66.6671917,69.0641473 67.4239901,69.076996 Z M128.301891,56.3023692 C130.476564,56.3023692 132.430879,57.0001554 133.949461,58.3324724 C134.916648,59.1804902 135.577725,60.131298 136.020437,61.0929778 C136.648609,59.3129312 136.965687,57.3460834 136.965687,55.2033065 C136.965687,48.4547454 132.44783,45.2010455 129.756659,43.8657634 C125.708435,41.8534508 120.81168,41.6518242 117.395618,43.2193722 C121.656224,44.4854687 124.771162,47.32109 126.475205,51.5127489 C127.193116,53.2809352 127.535121,54.9927846 127.692663,56.318183 C127.802344,56.3112645 127.913022,56.3082994 128.028686,56.3063227 C128.120419,56.3033576 128.211155,56.3023692 128.301891,56.3023692 Z M102.920727,73.3151082 L102.885828,73.3151082 C101.739164,73.2943525 100.824824,72.3722073 100.836789,71.2375635 C100.836789,71.1436687 101.04618,61.7591363 111.20064,61.5851839 L111.236535,61.5851839 C112.371235,61.5851839 113.29754,62.4875618 113.318479,63.6162755 C113.337424,64.7548728 112.421089,65.6948086 111.270437,65.717541 C105.433417,65.8153892 105.023609,70.3796621 105.001673,71.2939003 C104.973754,72.4147071 104.048446,73.3151082 102.920727,73.3151082 Z" id="Combined-Shape" fill="@color0"></path>
        </g>
    </g>
</svg>