<?xml version="1.0" encoding="UTF-8" standalone="no"?>
<svg width="200px" height="200px" viewBox="0 0 200 200" version="1.1" xmlns="http://www.w3.org/2000/svg" xmlns:xlink="http://www.w3.org/1999/xlink">
    <!-- Generator: Sketch 3.7.2 (28276) - http://www.bohemiancoding.com/sketch -->
    <title>control</title>
    <desc>Created with Sketch.</desc>
    <defs></defs>
    <g id="Page-1" stroke="none" stroke-width="1" fill="none" fill-rule="evenodd">
        <g id="control">
            <path d="M96.865894,68.3291391 L104.099669,68.3291391 L104.099669,48.7993377 L96.865894,48.7993377 L96.865894,68.3291391 Z M140.265563,68.3291391 L147.498344,68.3291391 L147.498344,48.7993377 L140.265563,48.7993377 L140.265563,68.3291391 Z M125.799007,62.5427152 L133.032781,62.5427152 L133.032781,48.7993377 L125.799007,48.7993377 L125.799007,62.5427152 Z M111.33245,62.5427152 L118.565232,62.5427152 L118.565232,48.7993377 L111.33245,48.7993377 L111.33245,62.5427152 Z M82.3993377,62.5427152 L89.6321192,62.5427152 L89.6321192,48.7993377 L82.3993377,48.7993377 L82.3993377,62.5427152 Z M67.9327815,62.5427152 L75.1655629,62.5427152 L75.1655629,48.7993377 L67.9327815,48.7993377 L67.9327815,62.5427152 Z M53.4652318,68.3291391 L60.6990066,68.3291391 L60.6990066,48.7993377 L53.4652318,48.7993377 L53.4652318,68.3291391 Z" id="Fill-97" fill="@color0"></path>
            <path d="M105.364636,126.738444 C105.364636,129.43447 103.179205,131.620894 100.482185,131.620894 C97.7861589,131.620894 95.5997351,129.43447 95.5997351,126.738444 C95.5997351,124.041424 97.7861589,121.855993 100.482185,121.855993 C103.179205,121.855993 105.364636,124.041424 105.364636,126.738444 L105.364636,126.738444 Z M160.517947,99.7940728 L117.185828,99.7940728 L100.482185,75.8040066 L83.778543,99.7940728 L40.4454305,99.7940728 L40.4454305,54.2238742 C40.4454305,46.2341391 46.9222517,39.7573179 54.9119868,39.7573179 L146.052384,39.7573179 C154.042119,39.7573179 160.517947,46.2341391 160.517947,54.2238742 L160.517947,99.7940728 Z M100.482185,155.587119 C89.641457,155.587119 80.8550331,146.798709 80.8550331,135.958974 C80.8550331,125.119238 89.641457,116.330828 100.482185,116.330828 C111.321921,116.330828 120.110331,125.119238 120.110331,135.958974 C120.110331,146.798709 111.321921,155.587119 100.482185,155.587119 L100.482185,155.587119 Z M147.860331,25.2907616 L53.1040397,25.2907616 C38.1229139,25.2907616 25.9788742,37.4348013 25.9788742,52.4159272 L25.9788742,147.172219 C25.9788742,162.152351 38.1229139,174.297384 53.1040397,174.297384 L147.860331,174.297384 C162.841457,174.297384 174.985497,162.152351 174.985497,147.172219 L174.985497,52.4159272 C174.985497,37.4348013 162.841457,25.2907616 147.860331,25.2907616 L147.860331,25.2907616 Z" id="Fill-98" fill="#545658"></path>
        </g>
    </g>
</svg>