<?xml version="1.0" encoding="UTF-8" standalone="no"?>
<svg width="200px" height="200px" viewBox="0 0 200 200" version="1.1" xmlns="http://www.w3.org/2000/svg" xmlns:xlink="http://www.w3.org/1999/xlink">
    <!-- Generator: Sketch 3.7.2 (28276) - http://www.bohemiancoding.com/sketch -->
    <title>smart-rules</title>
    <desc>Created with Sketch.</desc>
    <defs></defs>
    <g id="Page-1" stroke="none" stroke-width="1" fill="none" fill-rule="evenodd">
        <g id="smart-rules">
            <g id="Group-5" transform="translate(25.000000, 31.000000)">
                <path d="M122.466,106.538 C116.904,106.538 112.394,102.028 112.394,96.466 C112.394,90.903 116.904,86.393 122.466,86.393 C128.028,86.393 132.538,90.903 132.538,96.466 C132.538,102.028 128.028,106.538 122.466,106.538 L122.466,106.538 Z M149.932,100.165 L149.932,92.767 L145.935,91.347 C144.41,90.805 143.183,89.64 142.564,88.145 L142.563,88.144 C141.942,86.646 141.986,84.955 142.682,83.49 L144.502,79.66 L139.271,74.43 L135.442,76.25 C133.978,76.945 132.285,76.989 130.787,76.368 L130.785,76.368 C129.29,75.748 128.128,74.523 127.586,72.998 L126.164,69 L118.767,69 L117.346,72.998 C116.803,74.521 115.64,75.749 114.146,76.368 L114.144,76.368 C112.647,76.989 110.955,76.946 109.49,76.25 L105.66,74.43 L100.429,79.66 L102.25,83.49 C102.945,84.954 102.988,86.647 102.367,88.144 L102.367,88.146 C101.748,89.642 100.523,90.804 98.998,91.347 L95,92.767 L95,100.165 L98.998,101.586 C100.522,102.128 101.749,103.291 102.367,104.785 L102.367,104.788 C102.989,106.285 102.946,107.976 102.25,109.441 L100.429,113.271 L105.66,118.502 L109.49,116.683 C110.954,115.986 112.647,115.942 114.144,116.563 L114.146,116.564 C115.641,117.184 116.802,118.408 117.346,119.933 L118.767,123.931 L126.164,123.931 L127.577,119.959 C128.124,118.421 129.298,117.183 130.805,116.556 L130.808,116.555 C132.291,115.937 133.966,115.98 135.417,116.67 L139.271,118.502 L144.502,113.27 L142.681,109.438 C141.986,107.976 141.943,106.284 142.563,104.789 L142.563,104.788 C143.185,103.291 144.41,102.128 145.936,101.584 L149.932,100.165 Z" id="Fill-81" fill="@color0"></path>
                <path d="M77.957,126.601 C73.92,126.601 70.647,123.329 70.647,119.29 C70.647,115.253 73.92,111.981 77.957,111.981 C81.994,111.981 85.267,115.253 85.267,119.29 C85.267,123.329 81.994,126.601 77.957,126.601 L77.957,126.601 Z M96.584,121.318 L96.584,117.263 L93.762,116.557 C93.177,116.411 92.716,115.957 92.56,115.375 C92.559,115.372 92.559,115.369 92.558,115.366 C92.403,114.792 92.574,114.179 93.001,113.767 L95.102,111.734 L93.074,108.222 L90.29,109.018 C89.701,109.186 89.063,109.022 88.63,108.589 L88.63,108.588 C88.214,108.174 88.057,107.567 88.218,107.003 L89.026,104.173 L85.514,102.146 L83.491,104.237 C83.072,104.669 82.451,104.842 81.87,104.687 L81.861,104.685 C81.286,104.532 80.839,104.079 80.694,103.5 L79.985,100.664 L75.93,100.664 L75.224,103.487 C75.077,104.071 74.624,104.533 74.041,104.688 L74.032,104.691 C73.458,104.845 72.846,104.674 72.433,104.247 L70.4,102.146 L66.888,104.173 L67.684,106.958 C67.853,107.547 67.688,108.184 67.256,108.618 L67.255,108.619 C66.84,109.035 66.233,109.192 65.67,109.031 L62.84,108.222 L60.812,111.734 L62.903,113.756 C63.336,114.175 63.509,114.797 63.353,115.378 C63.353,115.381 63.352,115.384 63.352,115.387 C63.198,115.962 62.744,116.41 62.167,116.553 L59.33,117.263 L59.33,121.318 L62.153,122.025 C62.738,122.171 63.199,122.624 63.354,123.206 C63.355,123.209 63.356,123.213 63.356,123.216 C63.512,123.789 63.341,124.402 62.914,124.816 L60.812,126.848 L62.84,130.361 L65.624,129.564 C66.214,129.396 66.851,129.559 67.284,129.992 C67.285,129.993 67.285,129.994 67.285,129.994 C67.7,130.408 67.857,131.015 67.697,131.579 L66.888,134.409 L70.4,136.436 L72.423,134.344 C72.841,133.912 73.463,133.74 74.044,133.895 C74.048,133.895 74.051,133.896 74.051,133.896 C74.629,134.049 75.075,134.504 75.22,135.081 L75.93,137.918 L79.985,137.918 L80.691,135.095 C80.838,134.51 81.291,134.049 81.873,133.894 C81.876,133.892 81.879,133.891 81.879,133.891 C82.456,133.737 83.068,133.907 83.481,134.334 L85.514,136.436 L89.026,134.409 L88.23,131.623 C88.061,131.035 88.227,130.398 88.658,129.964 L88.66,129.962 C89.074,129.547 89.682,129.391 90.245,129.551 L93.074,130.361 L95.102,126.848 L93.011,124.826 C92.578,124.407 92.405,123.785 92.561,123.204 C92.561,123.201 92.562,123.198 92.563,123.194 C92.717,122.619 93.171,122.173 93.748,122.028 L96.584,121.318 Z M51.665,70.613 C41.201,70.613 32.718,62.129 32.718,51.666 C32.718,41.202 41.201,32.718 51.665,32.718 C62.129,32.718 70.612,41.202 70.612,51.666 C70.612,62.129 62.129,70.613 51.665,70.613 L51.665,70.613 Z M103.33,58.624 L103.33,44.708 L95.811,42.035 C92.944,41.015 90.637,38.826 89.473,36.014 L89.471,36.011 C88.302,33.194 88.384,30.013 89.692,27.258 L93.118,20.053 L83.277,10.213 L76.075,13.637 C73.321,14.946 70.136,15.029 67.32,13.861 L67.316,13.86 C64.503,12.694 62.317,10.389 61.297,7.52 L58.623,0 L44.707,0 L42.032,7.52 C41.013,10.386 38.824,12.694 36.014,13.86 L36.01,13.861 C33.191,15.03 30.011,14.948 27.256,13.638 L20.053,10.213 L10.212,20.053 L13.636,27.256 C14.945,30.009 15.026,33.195 13.859,36.012 C13.858,36.013 13.858,36.013 13.857,36.016 C12.691,38.828 10.388,41.014 7.519,42.035 L0,44.708 L0,58.624 L7.519,61.298 C10.386,62.318 12.693,64.507 13.858,67.318 L13.859,67.321 C15.028,70.139 14.946,73.32 13.638,76.076 L10.212,83.28 L20.053,93.119 L27.256,89.696 C30.009,88.386 33.194,88.304 36.012,89.472 C36.013,89.473 36.014,89.473 36.015,89.473 C38.827,90.64 41.013,92.942 42.033,95.812 L44.707,103.33 L58.624,103.33 L61.281,95.86 C62.31,92.966 64.518,90.637 67.353,89.458 C67.354,89.457 67.355,89.457 67.357,89.456 C70.148,88.296 73.299,88.376 76.029,89.673 L83.277,93.119 L93.118,83.28 L89.691,76.071 C88.384,73.32 88.303,70.138 89.47,67.325 C89.471,67.323 89.472,67.323 89.472,67.321 C90.639,64.506 92.944,62.318 95.815,61.296 L103.33,58.624 Z" id="Fill-82" fill="#545658"></path>
            </g>
        </g>
    </g>
</svg>