<?xml version="1.0" encoding="UTF-8" standalone="no"?>
<svg width="200px" height="200px" viewBox="0 0 200 200" version="1.1" xmlns="http://www.w3.org/2000/svg" xmlns:xlink="http://www.w3.org/1999/xlink">
    <!-- Generator: Sketch 3.7.2 (28276) - http://www.bohemiancoding.com/sketch -->
    <title>flask</title>
    <desc>Created with Sketch.</desc>
    <defs></defs>
    <g id="Page-1" stroke="none" stroke-width="1" fill="none" fill-rule="evenodd">
        <g id="flask">
            <g id="Group" transform="translate(52.000000, 25.000000)">
                <path d="M74.5,0 L64.1323519,0 L64.1323519,117.105168 C64.1323519,125.569209 57.1185271,132.455126 48.5,132.455126 C39.8790193,132.455126 32.8676481,125.569209 32.8676481,117.105168 L32.8676481,110.490302 L32.8676481,103.070714 L32.8676481,94.2982773 L32.8676481,83.3333333 L32.8676481,74.562101 L32.8676481,63.597157 L32.8676481,54.8247199 L32.8676481,43.8597759 L32.8676481,35.0885435 L32.8676481,11.9491628 L32.8676481,0 L22.5,0 L8.92828441,0 C3.99645849,0 0,4.02938955 0,8.999382 C0,13.9706105 3.99645849,18 8.92828441,18 L15,18 L15,117.105168 C15,135.272859 29.9993042,150 48.5,150 C67.0006958,150 82,135.272859 82,117.105168 L82,18 L88.0717156,18 C93.0035415,18 97,13.9706105 97,8.999382 C97,4.02938955 93.0035415,0 88.0717156,0 L74.5,0 Z" id="Combined-Shape" fill="#545658"></path>
                <path d="M33,83 L47,83 L47,75 L33,75 L33,83 Z M33,103 L47,103 L47,95 L33,95 L33,103 Z M33,43 L47,43 L47,35 L33,35 L33,43 Z M33,63 L47,63 L47,55 L33,55 L33,63 Z" id="Fill-85" fill="#1fa22e"></path>
            </g>
        </g>
    </g>
</svg>