<?xml version="1.0" encoding="UTF-8" standalone="no"?>
<svg width="200px" height="200px" viewBox="0 0 200 200" version="1.1" xmlns="http://www.w3.org/2000/svg" xmlns:xlink="http://www.w3.org/1999/xlink">
    <!-- Generator: Sketch 3.7.2 (28276) - http://www.bohemiancoding.com/sketch -->
    <title>puzzle</title>
    <desc>Created with Sketch.</desc>
    <defs></defs>
    <g id="Page-1" stroke="none" stroke-width="1" fill="none" fill-rule="evenodd">
        <g id="puzzle">
            <path d="M100,152.991253 C100,149.690834 99.146,150.247352 97.162,152.31867 C95.63,153.941599 93.311,156.399802 88.452,156.399802 C81.958,156.399802 75,150.174935 75,140.900628 C75,131.623345 81.958,125.399471 88.452,125.399471 C93.311,125.399471 95.63,127.857673 97.162,129.480602 C99.143,131.539024 100,132.120343 100,128.809011 L100,106.799273 L77.814,106.799273 C71.984,106.799273 69.336,103.233986 69.336,99.9216632 C69.336,97.8632412 70.307,95.7562107 72.07,94.0122561 C73.913,92.2524294 75,91.6086145 75,89.1444602 C75,86.2249731 71.661,82 65.625,82 C59.589,82 56.25,86.2249731 56.25,89.1444602 C56.25,91.6086145 57.336,92.2524294 59.18,94.0122561 C60.943,95.7562107 61.914,97.8632412 61.914,99.9216632 C61.914,103.233986 59.266,106.799273 53.437,106.799273 L25,106.799273 L25,175 L100,175 L100,152.991253 Z M53.437,100 C56.771,100 56.192,99.142 54.113,97.162 C52.478,95.629 50,93.31 50,88.452 C50,81.958 56.274,75 65.625,75 C74.976,75 81.25,81.958 81.25,88.452 C81.25,93.31 78.772,95.629 77.137,97.162 C75.067,99.133 74.467,100 77.814,100 L100,100 L100,71.563 C100,65.738 103.595,63.083 106.934,63.083 C109.009,63.083 111.133,64.056 112.891,65.823 C114.667,67.669 115.319,68.75 117.798,68.75 C120.739,68.75 125,65.411 125,59.375 C125,53.337 120.739,50 117.798,50 C115.319,50 114.66,51.08 112.891,52.929 C111.133,54.693 109.009,55.667 106.934,55.667 C103.595,55.667 100,53.012 100,47.185 L100,25 L25,25 L25,100 L53.437,100 Z M106.25,25 L175,25 L175,100 L152.814,100 C146.984,100 144.336,103.594 144.336,106.933 C144.336,109.008 145.307,111.132 147.07,112.89 C148.914,114.66 150,115.313 150,117.797 C150,120.739 146.662,125 140.625,125 C134.589,125 131.25,120.739 131.25,117.797 C131.25,115.314 132.337,114.66 134.18,112.89 C135.943,111.132 136.914,109.008 136.914,106.933 C136.914,103.594 134.266,100 128.437,100 L106.25,100 L106.25,71.563 C106.25,68.221 107.108,68.814 109.089,70.883 C110.621,72.522 112.94,75 117.799,75 C124.293,75 131.251,68.722 131.251,59.375 C131.251,50.028 124.293,43.75 117.799,43.75 C112.94,43.75 110.621,46.227 109.089,47.867 C107.105,49.951 106.25,50.515 106.25,47.186 L106.25,25 Z" id="Fill-99" fill="#545658"></path>
            <path d="M152.991488,107 C149.678208,107 150.25952,107.844684 152.318912,109.80704 C153.941824,111.322327 156.4,113.616029 156.4,118.422022 C156.4,124.845178 150.1752,131.727273 140.9,131.727273 C131.623808,131.727273 125.4,124.845178 125.4,118.422022 C125.4,113.616029 127.858176,111.322327 129.481088,109.80704 C131.533536,107.856553 132.133696,107 128.809504,107 L106.8,107 L106.8,128.94496 C106.8,134.710371 103.234752,137.329484 99.922464,137.329484 C97.863072,137.329484 95.756064,136.369076 94.012128,134.625309 C92.251328,132.795491 91.60256,131.727273 89.144384,131.727273 C86.22592,131.727273 82,135.029847 82,141 C82,146.970153 86.22592,150.272727 89.144384,150.272727 C91.60256,150.272727 92.25232,149.20352 94.012128,147.374691 C95.756064,145.629935 97.863072,144.669527 99.922464,144.669527 C103.234752,144.669527 106.8,147.289629 106.8,153.05504 L106.8,175 L175,175 L175,107 L152.991488,107 Z" id="Fill-100" fill="#1fa22e"></path>
        </g>
    </g>
</svg>