<?xml version="1.0" encoding="UTF-8" standalone="no"?>
<svg width="200px" height="200px" viewBox="0 0 200 200" version="1.1" xmlns="http://www.w3.org/2000/svg" xmlns:xlink="http://www.w3.org/1999/xlink">
    <!-- Generator: Sketch 3.7.2 (28276) - http://www.bohemiancoding.com/sketch -->
    <title>spin</title>
    <desc>Created with Sketch.</desc>
    <defs></defs>
    <g id="Page-1" stroke="none" stroke-width="1" fill="none" fill-rule="evenodd">
        <g id="spin">
            <path d="M44.6136909,102.928373 C44.6136909,102.67184 44.5774478,102.422213 44.5774478,102.166667 C44.5774478,73.6480533 66.0637271,50.1624267 93.5771355,47.0869867 L93.554606,59 L111.951406,40.52368 L93.6133786,22 L93.5967263,34.6431467 C59.2549226,37.7422667 32.3331582,66.7709867 32.3331582,102.166667 C32.3331582,103.00336 32.4291535,103.815387 32.4595193,104.644187 L44.6136909,102.928373 Z M99.6767508,157.666667 C79.2767848,157.666667 61.4726083,146.410773 51.9485101,129.771627 L62.7754007,123.449067 L37.6648117,116.733813 L31,142.014187 L41.3723826,135.95704 C52.9956417,156.2804 74.7150523,170 99.6767508,170 C113.159183,170 125.684601,165.964533 136.218608,159.099307 L128.62519,149.301707 C120.201119,154.570507 110.300876,157.666667 99.6767508,157.666667 L99.6767508,157.666667 Z M169,141.129147 L144.067688,148.475867 L136.763234,123.364213 L147.553882,129.313813 C152.068596,121.268533 154.776054,112.054053 154.776054,102.166667 C154.776054,79.4664267 141.163342,59.9304267 121.737042,51.34248 L125.552363,39.5389867 C149.896949,49.7549333 167.020343,73.9401067 167.020343,102.166667 C167.020343,114.210907 163.827033,125.47272 158.351386,135.263413 L169,141.129147 Z" id="Fill-101" fill="#ffffff"></path>
            <path d="M130,102 C130,118.56768 116.5696,132 100,132 C83.4304,132 70,118.56768 70,102 C70,85.43232 83.4304,72 100,72 C116.5696,72 130,85.43232 130,102" id="Fill-106" fill="@color0"></path>
        </g>
    </g>
</svg>