<?xml version="1.0" encoding="UTF-8" standalone="no"?>
<svg width="200px" height="200px" viewBox="0 0 200 200" version="1.1" xmlns="http://www.w3.org/2000/svg" xmlns:xlink="http://www.w3.org/1999/xlink">
    <!-- Generator: Sketch 3.7.2 (28276) - http://www.bohemiancoding.com/sketch -->
    <title>cockpit</title>
    <desc>Created with Sketch.</desc>
    <defs>
        <path d="M25.7450331,100.248344 C25.7450331,141.330464 59.1652318,174.751656 100.247351,174.751656 C141.330464,174.751656 174.751656,141.330464 174.751656,100.248344 C174.751656,59.1672185 141.330464,25.7450331 100.247351,25.7450331 C59.1652318,25.7450331 25.7450331,59.1672185 25.7450331,100.248344 L25.7450331,100.248344 Z M38.1602649,100.248344 C38.1602649,66.0115894 66.0115894,38.1602649 100.247351,38.1602649 C134.484106,38.1602649 162.33543,66.0115894 162.33543,100.248344 C162.33543,134.485099 134.484106,162.336424 100.247351,162.336424 C66.0115894,162.336424 38.1602649,134.485099 38.1602649,100.248344 L38.1602649,100.248344 Z M96.2062914,48.4824503 L96.2062914,65.7652318 C97.5483444,65.6122517 98.9023179,65.5288079 100.241391,65.5288079 C101.583444,65.5288079 102.936424,65.6122517 104.27053,65.7652318 L104.27053,48.4824503 C102.910596,48.3761589 101.556623,48.3195364 100.241391,48.3195364 C98.9241722,48.3195364 97.5672185,48.3761589 96.2062914,48.4824503 L96.2062914,48.4824503 Z M110.27053,67.0029801 C112.857285,67.7778146 115.359603,68.8586093 117.720861,70.2264901 L124.07649,54.2490066 C121.67649,52.9735099 119.172185,51.8927152 116.625166,51.0274834 L110.27053,67.0029801 L110.27053,67.0029801 Z M76.2135762,54.3493377 L82.6337748,70.2900662 C84.9870861,68.9182119 87.4824503,67.831457 90.0731788,67.0456954 L83.6529801,51.0940397 C81.1059603,51.9781457 78.610596,53.0688742 76.2135762,54.3493377 L76.2135762,54.3493377 Z M122.793046,73.75 C124.898013,75.5072848 126.809272,77.5019868 128.492053,79.6903974 L140.223841,67.4738411 C138.475497,65.35 136.562252,63.3503311 134.527815,61.5294702 L122.793046,73.75 L122.793046,73.75 Z M60.2569536,67.4738411 L71.9857616,79.6903974 C73.6695364,77.4940397 75.5877483,75.5072848 77.6937086,73.75 L65.957947,61.5294702 C63.9215232,63.3572848 62.0033113,65.35 60.2569536,67.4738411 L60.2569536,67.4738411 Z M131.607285,84.4596026 C132.956291,86.9013245 134.030132,89.4880795 134.818874,92.1731788 L150.046358,85.3049669 C149.170199,82.652649 148.097351,80.0668874 146.842715,77.5933775 L131.607285,84.4596026 L131.607285,84.4596026 Z M50.1701987,86.1175497 L65.5039735,92.7433775 C66.2559603,90.0403974 67.2930464,87.4387417 68.5953642,84.9811258 L53.2615894,78.3543046 C52.0397351,80.8576159 51.002649,83.4662252 50.1701987,86.1175497 L50.1701987,86.1175497 Z" id="path-1"></path>
    </defs>
    <g id="Page-1" stroke="none" stroke-width="1" fill="none" fill-rule="evenodd">
        <g id="cockpit">
            <mask id="mask-2" fill="white">
                <use xlink:href="#path-1"></use>
            </mask>
            <use id="gauge" fill="#545658" xlink:href="#path-1"></use>
            <path d="M93.213245,106.270199 C88.7380795,108.747682 85.7003311,113.520861 85.7003311,119.004305 C85.7003311,127.038742 92.2149007,133.551325 100.247351,133.551325 C108.279801,133.551325 114.795364,127.038742 114.795364,119.000331 C114.795364,113.516887 111.766556,108.740728 107.283444,106.262252 L100.247351,73.3049669 L93.213245,106.270199 L93.213245,106.270199 Z" id="pointer" fill="@color0"></path>
        </g>
    </g>
</svg>