<?xml version="1.0" encoding="UTF-8" standalone="no"?>
<svg width="200px" height="200px" viewBox="0 0 200 200" version="1.1" xmlns="http://www.w3.org/2000/svg" xmlns:xlink="http://www.w3.org/1999/xlink">
    <!-- Generator: Sketch 3.7.2 (28276) - http://www.bohemiancoding.com/sketch -->
    <title>switch</title>
    <desc>Created with Sketch.</desc>
    <defs></defs>
    <g id="Page-1" stroke="none" stroke-width="1" fill="none" fill-rule="evenodd">
        <g id="switch">
            <path d="M79.0004944,65 C83.9698984,65 88,69.0293342 88,74 C88,78.9706658 83.9698984,83 79.0004944,83 C74.0301016,83 70,78.9706658 70,74 C70,69.0293342 74.0301016,65 79.0004944,65" id="Fill-42" fill="#1fa22e"></path>
            <path d="M142.9766,127.549 C142.9766,134.174 137.5866,139.565 130.9616,139.565 L69.0386,139.565 C62.4136,139.565 57.0236,134.174 57.0236,127.549 C57.0236,120.924 62.4136,115.533 69.0386,115.533 L130.9616,115.533 C137.5866,115.533 142.9766,120.924 142.9766,127.549 M149.1646,73.908 C149.1646,63.854 141.0156,55.704 130.9616,55.704 L69.0386,55.704 C58.9846,55.704 50.8346,63.854 50.8346,73.908 C50.8346,83.962 58.9846,92.111 69.0386,92.111 L130.9616,92.111 C141.0156,92.111 149.1646,83.961 149.1646,73.908 M149.1646,127.549 C149.1646,117.494 141.0156,109.344 130.9616,109.344 L69.0386,109.344 C58.9846,109.344 50.8346,117.494 50.8346,127.549 C50.8346,137.604 58.9846,145.752 69.0386,145.752 L130.9616,145.752 C141.0156,145.752 149.1646,137.604 149.1646,127.549 M174.9996,52.306 L174.9996,147.695 C174.9996,162.776 162.7756,175 147.6946,175 L52.3056,175 C37.2246,175 24.9996,162.774 24.9996,147.694 L24.9996,52.306 C24.9996,37.226 37.2246,25 52.3056,25 L147.6956,25 C162.7756,25 174.9996,37.226 174.9996,52.306" id="Fill-44" fill="#ffffff"></path>
            <path d="M121.999506,119 C126.969898,119 131,123.028567 131,128.000494 C131,132.971433 126.969898,137 121.999506,137 C117.030102,137 113,132.971433 113,128.000494 C113,123.028567 117.030102,119 121.999506,119" id="Fill-46" fill="#1fa22e"></path>
        </g>
    </g>
</svg>