<?xml version="1.0" encoding="utf-8"?>
<!-- Generator: Adobe Illustrator 16.0.4, SVG Export Plug-In . SVG Version: 6.00 Build 0)  -->
<!DOCTYPE svg PUBLIC "-//W3C//DTD SVG 1.1//EN" "http://www.w3.org/Graphics/SVG/1.1/DTD/svg11.dtd">
<svg version="1.1"
	 id="svg2" xmlns:dc="http://purl.org/dc/elements/1.1/" xmlns:cc="http://creativecommons.org/ns#" xmlns:rdf="http://www.w3.org/1999/02/22-rdf-syntax-ns#" xmlns:svg="http://www.w3.org/2000/svg" xmlns:sodipodi="http://sodipodi.sourceforge.net/DTD/sodipodi-0.dtd" xmlns:inkscape="http://www.inkscape.org/namespaces/inkscape" sodipodi:docname="China Unicom.svg" inkscape:version="0.48.1 r9760"
	 xmlns="http://www.w3.org/2000/svg" xmlns:xlink="http://www.w3.org/1999/xlink" x="0px" y="0px" width="230px" height="110px"
	 viewBox="-86.912 -60.26 230 110" enable-background="new -86.912 -60.26 230 110" xml:space="preserve">
<sodipodi:namedview  fit-margin-left="0" fit-margin-top="10" showgrid="false" inkscape:cy="31.448829" inkscape:cx="160.25416" inkscape:zoom="2.8" borderopacity="1.0" bordercolor="#666666" pagecolor="#ffffff" id="base" inkscape:window-maximized="1" inkscape:window-y="26" inkscape:window-x="0" inkscape:window-height="712" inkscape:window-width="1366" fit-margin-bottom="0" inkscape:current-layer="layer1" inkscape:document-units="px" inkscape:pageopacity="0.0" fit-margin-right="10" inkscape:pageshadow="2">
	</sodipodi:namedview>
<path id="path4265" inkscape:connector-curvature="0" fill="#D91920" d="M84.269,9.26c-1.689,1.691-4.428,1.691-6.123,0
	c-1.63-1.627-3.06-3.063-3.06-3.063l4.629-4.632l-5.823-5.821l-4.63,4.633l-4.634-4.633l-5.823,5.821l4.634,4.632
	c0,0-1.437,1.436-3.062,3.063c-1.691,1.691-4.437,1.691-6.125,0c-1.691-1.689-1.691-4.434,0-6.123
	C56.029,1.362,69.2-11.937,69.2-11.937S82.493,1.362,84.269,3.138C85.962,4.827,85.962,7.571,84.269,9.26L84.269,9.26z
	 M54.249-38.529c-1.689-1.691-1.689-4.435,0-6.125c1.69-1.692,4.436-1.692,6.127,0c1.626,1.629,3.062,3.062,3.062,3.062
	l-4.633,4.634l5.823,5.818l4.634-4.631l4.63,4.631l5.823-5.818l-4.629-4.634c0,0,1.43-1.433,3.06-3.062
	c1.695-1.692,4.433-1.692,6.123,0c1.693,1.689,1.693,4.433,0,6.125c-1.776,1.774-15.071,15.071-15.071,15.071
	S56.029-36.755,54.249-38.529L54.249-38.529z M75.081-17.696c0,0,13.649-13.645,15.012-15.01c4.907-4.91,4.907-12.863,0-17.773
	c-4.903-4.906-12.863-4.906-17.769,0c-1.928,1.926-3.062,3.062-3.062,3.062s-1.14-1.137-3.062-3.062
	c-4.912-4.906-12.866-4.906-17.775,0c-4.908,4.91-4.908,12.863,0,17.773c1.364,1.365,15.013,15.01,15.013,15.01
	S49.79-4.048,48.426-2.687c-4.908,4.908-4.908,12.863,0,17.771c4.909,4.908,12.863,4.908,17.775,0
	c1.921-1.924,3.062-3.064,3.062-3.064s1.134,1.141,3.062,3.064c4.905,4.908,12.865,4.908,17.769,0C95,10.177,95,2.221,90.093-2.687
	C88.73-4.048,75.081-17.696,75.081-17.696z M108.042-14.635c-1.69,1.69-4.434,1.69-6.126,0c-1.374-1.375-3.062-3.062-3.062-3.062
	s1.688-1.688,3.062-3.062c1.692-1.692,4.436-1.692,6.126,0c0.846,0.845,1.269,1.952,1.269,3.062
	C109.311-16.587,108.888-15.48,108.042-14.635z M113.866-26.583c-4.909-4.91-12.868-4.91-17.775,0
	c-1.403,1.407-3.061,3.062-3.061,3.062l-4.633-4.63l-5.821,5.82l4.634,4.634l-4.634,4.631l5.821,5.821l4.633-4.631
	c0,0,1.657,1.658,3.061,3.065c4.907,4.907,12.866,4.907,17.775,0c2.453-2.454,3.68-5.668,3.68-8.886
	C117.546-20.915,116.32-24.128,113.866-26.583L113.866-26.583z M36.481-14.635c-1.694,1.69-4.437,1.69-6.127,0
	c-0.845-0.845-1.265-1.952-1.265-3.062c0-1.11,0.419-2.217,1.265-3.062c1.69-1.692,4.433-1.692,6.127,0
	c1.374,1.375,3.062,3.062,3.062,3.062S37.855-16.01,36.481-14.635z M49.998-7.244l5.824-5.821l-4.637-4.631l4.637-4.634l-5.824-5.82
	l-4.631,4.63c0,0-1.655-1.655-3.062-3.062c-4.909-4.91-12.868-4.91-17.774,0c-2.453,2.454-3.68,5.667-3.68,8.886
	c0,3.217,1.228,6.432,3.68,8.885c4.907,4.907,12.866,4.907,17.774,0c1.406-1.406,3.062-3.064,3.062-3.064L49.998-7.244"/>
<path id="path4267" inkscape:connector-curvature="0" fill="#FFFFFF" d="M2.406,18.979c-0.77,0.812-1.78,1.204-3.013,1.204
	c-1.164,0-2.129-0.417-2.896-1.246c-0.749-0.827-1.121-1.899-1.121-3.225c0-1.221,0.379-2.257,1.145-3.103
	c0.778-0.835,1.734-1.233,2.893-1.233c1.233,0,2.222,0.397,2.992,1.228c0.765,0.831,1.143,1.904,1.143,3.18
	C3.549,17.075,3.171,18.14,2.406,18.979L2.406,18.979z M3.354,8.843v1.614c-1.34-1.318-2.858-1.976-4.559-1.976
	c-1.958,0-3.59,0.696-4.894,2.061c-1.303,1.383-1.958,3.125-1.958,5.202c0,2.088,0.655,3.863,1.958,5.257
	c1.317,1.392,2.973,2.076,4.991,2.076c1.604,0,3.083-0.609,4.462-1.862v1.456h3.392V8.843H3.354"/>
<path id="path4269" inkscape:connector-curvature="0" fill="#FFFFFF" d="M-43.26,2.588h3.51v7.854c0,0,1.311-1.812,4.038-1.812
	c2.525,0,4.822,1.679,4.822,5.906v8.218h-3.198v-8.45c0-1.449-0.585-3.284-2.66-3.284c-1.975,0-2.992,1.482-3.002,3.284v8.45h-3.51
	V2.588"/>
<path id="path4271" inkscape:connector-curvature="0" fill="#FFFFFF" d="M-44.526,19.312c-0.779,1.104-1.753,1.989-2.953,2.667
	c-1.415,0.805-3.002,1.217-4.717,1.217c-2.534,0-4.693-0.905-6.486-2.681c-1.793-1.78-2.688-3.932-2.688-6.485
	c0-2.728,1.01-5.007,3.036-6.812c1.777-1.598,3.816-2.385,6.122-2.385c1.668,0,3.23,0.408,4.703,1.236
	c1.208,0.686,2.204,1.558,2.977,2.647l-3.01,2.16c-0.212-0.517-0.519-0.961-0.872-1.384c-1.003-1.154-2.273-1.732-3.836-1.732
	c-1.516,0-2.777,0.579-3.793,1.76c-1.005,1.171-1.509,2.666-1.509,4.495c0,1.89,0.499,3.399,1.5,4.576
	c0.989,1.163,2.252,1.74,3.79,1.74c1.53,0,2.798-0.585,3.818-1.775c0.374-0.423,0.676-0.896,0.902-1.415
	C-47.542,17.139-45.305,18.75-44.526,19.312"/>
<path id="path4273" inkscape:connector-curvature="0" fill="#FFFFFF" d="M-14.531,8.631c-3.342-0.048-4.426,1.812-4.426,1.812
	l-0.166-1.63h-3.014v13.924h3.493V14.29c0.019-1.787,1.051-3.284,3.013-3.284c2.081,0,2.68,1.844,2.68,3.284v8.446h3.242v-8.199
	C-9.709,10.296-12.018,8.646-14.531,8.631"/>
<path id="path4275" inkscape:connector-curvature="0" fill="#D91920" d="M-28.257,22.736h3.274V8.768h-3.274V22.736z"/>
<path id="path4277" inkscape:connector-curvature="0" fill="#D91920" d="M-26.643,7.35c-1.137,0-1.895-0.843-1.895-1.844
	c0-1.074,0.792-1.875,1.925-1.875c1.173,0,1.898,0.802,1.928,1.875c0,1.001-0.756,1.844-1.928,1.844H-26.643"/>
<path id="path4279" inkscape:connector-curvature="0" fill="#D91920" d="M-26.643,27.918c-1.137,0-1.895-0.826-1.895-1.825
	c0-1.072,0.792-1.884,1.925-1.884c1.173,0,1.898,0.812,1.928,1.884c0,0.999-0.756,1.825-1.928,1.825H-26.643"/>
<path id="path4281" inkscape:connector-curvature="0" fill="#FFFFFF" d="M22.984,29.262c-2.077-0.047-3.518,0.81-4.738,2.16
	c-0.824-1.496-2.189-2.121-3.624-2.16c-2.94-0.074-4.23,1.796-4.23,1.796l-0.114-1.687H7.113v13.926h3.525v-8.406
	c0.013-1.786,0.949-3.254,2.768-3.254c1.898,0,2.447,1.827,2.447,3.271v8.389h3.197v-8.22v0.017c0.007-2.338,1.1-3.457,2.715-3.457
	c1.906,0,2.446,1.827,2.446,3.271v8.389h3.199V35.14C27.41,30.928,25.29,29.316,22.984,29.262"/>
<path id="path4283" inkscape:connector-curvature="0" fill="#D91920" d="M-28.257,43.297h3.274V29.371h-3.274V43.297z"/>
<path id="path4285" inkscape:connector-curvature="0" fill="#FFFFFF" d="M-1.568,31.488c-1.121,0-2.051,0.458-2.788,1.358
	c-0.741,0.908-1.118,2.075-1.118,3.493c0,1.444,0.369,2.633,1.103,3.528c0.74,0.898,1.657,1.35,2.788,1.35s2.057-0.451,2.802-1.364
	c0.755-0.91,1.119-2.087,1.119-3.514c0-1.432-0.363-2.598-1.097-3.509C0.508,31.946-0.423,31.488-1.568,31.488z M-1.822,29.055
	c1.307,0,2.533,0.336,3.675,0.984c1.152,0.657,2.051,1.545,2.689,2.646c0.649,1.13,0.973,2.339,0.973,3.621
	c0,1.301-0.324,2.538-0.98,3.672c-0.642,1.133-1.526,2.025-2.645,2.65c-1.121,0.656-2.355,0.963-3.695,0.963
	c-1.995,0-3.685-0.7-5.089-2.113c-1.407-1.402-2.099-3.117-2.099-5.138c0-2.155,0.796-3.963,2.37-5.397
	C-5.22,29.691-3.631,29.055-1.822,29.055"/>
<path id="path4287" inkscape:connector-curvature="0" fill="#FFFFFF" d="M-35.713,29.188c-3.321-0.042-4.418,1.803-4.418,1.803
	l-0.168-1.619h-3.014v13.926h3.506v-8.436c0.008-1.795,1.035-3.277,3.009-3.277c2.067,0,2.664,1.827,2.664,3.277v8.436h3.243v-8.188
	C-30.891,30.864-33.188,29.231-35.713,29.188"/>
<path id="path4289" inkscape:connector-curvature="0" fill="#FFFFFF" d="M-53.707,43.484c3.334,0.044,4.423-1.812,4.423-1.812
	l0.168,1.625h3.017V29.371H-49.6v8.439c-0.014,1.796-1.031,3.284-3.011,3.284c-2.074,0-2.893-1.838-2.893-3.284v-8.439h-3.501v8.192
	C-59.005,41.806-56.226,43.453-53.707,43.484"/>
<path id="path4291" inkscape:connector-curvature="0" fill="#FFFFFF" d="M-9.249,40.567c-0.621,0.876-1.398,1.583-2.343,2.107
	c-1.128,0.648-2.383,0.955-3.749,0.955c-1.998,0-3.709-0.692-5.143-2.104c-1.424-1.42-2.123-3.132-2.123-5.152
	c0-2.151,0.802-3.949,2.412-5.396c1.399-1.252,3.014-1.879,4.849-1.879c1.316,0,2.555,0.317,3.725,0.974
	c0.957,0.541,1.747,1.237,2.359,2.092l-2.605,1.873c-0.166-0.376-0.378-0.718-0.642-1.019c-0.721-0.87-1.644-1.306-2.765-1.306
	c-1.104,0-2.009,0.451-2.748,1.306c-0.726,0.872-1.097,1.99-1.097,3.355c0,1.395,0.371,2.54,1.087,3.395
	c0.722,0.872,1.636,1.294,2.745,1.294c1.101,0,2.021-0.422,2.756-1.31c0.275-0.315,0.497-0.662,0.663-1.055L-9.249,40.567"/>
<path id="path4293" inkscape:connector-curvature="0" fill="#FFFFFF" d="M93.978,29.686c-1.311-1.727-2.653-2.669-2.653-2.669
	l-1.311,0.945l2.2,3.015L93.978,29.686L93.978,29.686z M102.158,32.329h2.639v1.124h-2.639V32.329z M104.797,36.181h-2.639v-1.124
	h2.639V36.181z M99.886,33.453H97.25v-1.124h2.636V33.453z M99.886,36.181H97.25v-1.124h2.636V36.181z M100.663,30.018
	c-1.08-0.732-2.287-1.294-2.287-1.294l-0.901,1.15l0.903,0.786h-3.401v10.006h0.7c0.716,0,1.573-0.479,1.573-1.504v-1.378h2.636
	v2.882h0.701c0.889,0,1.509-0.443,1.571-1.508v-1.374h2.639v0.672c0,0.333-0.365,0.544-0.666,0.544h-1.056l0.478,1.666h1.645
	c1.105,0,2-0.893,2-1.999V32.03c0-0.755-0.612-1.37-1.364-1.37h-2.646l3.479-2.1v-1.918H94.848v1.669h8.64L100.663,30.018
	L100.663,30.018z M94.688,41.446c-0.599,0-1.083-0.482-1.083-1.082v-8.641h-3.76v1.669h1.252v7.632c0,1.301,1.145,2.091,2.021,2.091
	h14.341v-1.669H94.688"/>
<path id="path4295" inkscape:connector-curvature="0" fill="#FFFFFF" d="M84.831,35.944h2.879v-1.67h-3.227V31.71h3.227v-1.667
	h-2.093l1.915-2.388l-1.813-1.301l-2.391,3.689H81.62l1.394-1.005c-1.208-1.661-2.216-2.679-2.216-2.679l-1.337,0.787l1.711,2.896
	h-2.097v1.667h2.776v2.564h-2.776v1.67h2.469l-2.919,7.487h1.255c0.664,0,1.341-0.458,1.614-1.059l1.783-4.467l2.468,5.525h2.441
	L84.831,35.944L84.831,35.944z M75.643,34.684h-2.028v-2.057h2.028V34.684z M75.638,38.384l-2.023,0.565v-2.603h2.028L75.638,38.384
	z M79.152,37.397l-1.13,0.316V28.37c0-1.026-0.624-1.668-1.405-1.668h-5.945v1.668h4.972v2.589h-2.028v-1.718h-2.253v10.34
	l-0.995,0.283v1.878l5.271-1.482v3.38h0.935c0.78,0,1.274-0.465,1.449-1.354v-2.688l1.13-0.318V37.397"/>
<path id="path4297" inkscape:connector-curvature="0" fill="#FFFFFF" d="M45.136,36.084c0,0.6-0.484,1.078-1.077,1.078h-3.364
	v-6.809h4.44V36.084L45.136,36.084z M46.18,28.686h-5.484v-2.326h-2.844v2.326h-3.57v1.668h3.57v6.809h-4.444v-8.477h-2.845v10.146
	h7.289v4.809h0.463c1.596-0.049,2.317-0.756,2.381-1.968v-2.841h4.823c1.328,0,2.41-1.047,2.465-2.361v-6.078
	C47.928,29.442,47.143,28.686,46.18,28.686"/>
<path id="path4299" inkscape:connector-curvature="0" fill="#FFFFFF" d="M64.203,38.167h-1.262l0.832-1.03
	c-1.133-1.019-1.979-1.565-1.979-1.565l-1.024,1.02l1.434,1.576h-1.934v-2.793h3.864v-1.667h-3.864v-2.072h3.864v-1.663H54.13v1.663
	h3.509v2.072H54.13v1.667h3.509v2.793h-3.576v1.669h10.139V38.167z M65.898,26.643H54.064v1.669h11.014v12.104
	c0,0.596-0.484,1.08-1.082,1.08H53.188V26.643h-2.631v16.522h14.771c1.316,0,2.382-1.064,2.382-2.382V28.447
	C67.708,27.451,66.895,26.643,65.898,26.643"/>
</svg>
