<?xml version="1.0" encoding="UTF-8" standalone="no"?>
<svg width="200px" height="200px" viewBox="0 0 200 200" version="1.1" xmlns="http://www.w3.org/2000/svg" xmlns:xlink="http://www.w3.org/1999/xlink">
    <!-- Generator: Sketch 3.7.2 (28276) - http://www.bohemiancoding.com/sketch -->
    <title>tools</title>
    <desc>Created with Sketch.</desc>
    <defs></defs>
    <g id="Page-1" stroke="none" stroke-width="1" fill="none" fill-rule="evenodd">
        <g id="tools">
            <path d="M162.248,152.20447 C162.248,148.835927 159.501,146.103146 156.108,146.103146 C152.717,146.103146 149.969,148.835927 149.969,152.20447 C149.969,155.574007 152.717,158.307781 156.108,158.307781 C159.5,158.307781 162.248,155.574007 162.248,152.20447 M167.371,163.573675 C161.553,169.353146 152.118,169.353146 146.3,163.573675 L108.91,125.673344 C115.707,118.206126 112.406,105.315066 101.521,103.397848 L82.308,100.006457 L75.7,93.4402318 C71.948,89.7130795 66.784,87.7481788 61.491,88.0312914 C52.857,88.4862583 44.075,85.443543 37.48,78.8922185 C28.646,70.1157285 26.144,57.438245 29.971,46.4445364 L50.058,66.3965232 C57.892,66.8554636 70.009,54.8187086 69.55,47.0365894 L49.463,27.0826159 C60.525,23.2789735 73.291,25.7663907 82.125,34.5418874 C88.721,41.0932119 91.783,49.817053 91.324,58.3928808 C91.044,63.6508278 93.02,68.7846026 96.769,72.5077815 L96.938,72.6756623 C89.169,85.6104305 99.642,94.4683775 108.227,94.1455298 C106.684,101.472682 114.579,109.107781 121.356,109.107781 C119.682,115.563742 124.713,122.294868 132.54,123.823675 C129.384,135.140232 146.653,147.209768 156.652,131.991225 L167.371,142.642219 C173.19,148.420695 173.19,157.795199 167.371,163.573675" id="Fill-66" fill="@color0"></path>
            <path d="M98.5312,123.879603 C107.6412,123.879603 109.0152,111.066026 100.4222,109.547152 C68.1062,103.847152 69.8042,104.031921 68.7402,104.031921 C64.7712,104.031921 61.3332,106.844172 60.5662,110.721325 L57.7732,135.220993 C57.3942,139.136887 58.6752,142.524305 61.7282,144.729603 C64.7762,146.932914 74.3922,153.727616 74.3922,153.727616 C74.3922,153.727616 76.4432,136.126954 77.0202,131.065695 C77.5952,126.001457 80.4592,122.508742 85.9172,122.774967 C86.4942,122.801788 97.5402,123.879603 98.5312,123.879603 L98.5312,123.879603 Z M108.6702,134.389536 C104.5012,130.119007 98.0342,129.798146 86.2702,129.023311 C84.4842,128.908079 83.3852,130.04947 83.2322,131.77298 C83.2012,132.158411 80.3732,157.895828 80.3732,157.895828 C80.3732,157.895828 97.8332,169.615695 105.0012,174.36404 C111.6502,162.44053 121.8732,161.717351 129.5092,155.722318 L108.6702,134.389536 Z M127.9272,106.368344 C125.7442,109.620662 126.6272,114.010397 129.9012,116.17894 C133.1752,118.345497 137.5942,117.466358 139.7772,114.216026 L147.9772,101.99351 C150.1582,98.7441722 149.2762,94.3504636 146.0032,92.1839073 C142.7282,90.017351 138.3092,90.8954967 136.1272,94.1507947 L127.9272,106.368344 Z M147.1192,111.581589 L139.5502,122.862384 C137.5322,125.860397 138.3502,129.915364 141.3712,131.916026 C144.3892,133.916689 148.4712,133.105099 150.4842,130.105099 L158.0542,118.824305 C160.0702,115.822318 159.2562,111.766358 156.2322,109.770662 C153.2142,107.769007 149.1312,108.583576 147.1192,111.581589 L147.1192,111.581589 Z M103.3202,87.0680132 C106.6102,89.2445033 111.0522,88.3613907 113.2422,85.0971523 L121.8852,72.2190066 C124.0752,68.9547682 123.1872,64.5392053 119.8992,62.3627152 C116.6152,60.1872185 112.1692,61.0693377 109.9792,64.3345695 L101.3372,77.2117219 C99.1462,80.4769536 100.0342,84.8895364 103.3202,87.0680132 L103.3202,87.0680132 Z M115.0802,91.3107285 L123.6392,78.5597351 C125.8282,75.301457 130.2632,74.4193377 133.5442,76.5908609 C136.8262,78.7643709 137.7162,83.1719868 135.5282,86.4302649 L126.9682,99.1842384 C124.7802,102.445497 120.3432,103.325629 117.0642,101.152119 C113.7802,98.9796026 112.8922,94.5719868 115.0802,91.3107285 L115.0802,91.3107285 Z" id="Fill-67" fill="#545658"></path>
        </g>
    </g>
</svg>