<?xml version="1.0" encoding="UTF-8" standalone="no"?>
<svg width="200px" height="200px" viewBox="0 0 200 200" version="1.1" xmlns="http://www.w3.org/2000/svg" xmlns:xlink="http://www.w3.org/1999/xlink">
    <!-- Generator: Sketch 3.7.2 (28276) - http://www.bohemiancoding.com/sketch -->
    <title>archive</title>
    <desc>Created with Sketch.</desc>
    <defs></defs>
    <g id="Page-1" stroke="none" stroke-width="1" fill="none" fill-rule="evenodd">
        <g id="archive">
            <path d="M71.50625,37.5 L128.4875,37.5 L145.15625,87.5 L158.325,87.5 L137.5,25 L62.5,25 L41.66875,87.5 L54.8375,87.5 L71.50625,37.5 L71.50625,37.5 Z M175,100 L162.5,175 L37.5,175 L25,100 L175,100 L175,100 Z M118.75,118.75 L81.25,118.75 L81.25,131.25 L118.75,131.25 L118.75,118.75 L118.75,118.75 Z" id="Shape" fill="#ffffff"></path>
            <path d="M64.71875,87.5 L135.275,87.5 L133.19375,81.25 L66.8,81.25 L64.71875,87.5 Z M79.30625,43.75 L77.225,50 L122.775,50 L120.6875,43.75 L79.30625,43.75 Z M68.8875,75 L131.10625,75 L129.025,68.75 L70.96875,68.75 L68.8875,75 L68.8875,75 Z M75.1375,56.25 L124.85625,56.25 L126.9375,62.5 L73.05625,62.5 L75.1375,56.25 L75.1375,56.25 Z" id="Combined-Shape" fill="@color0"></path>
        </g>
    </g>
</svg>