<?xml version="1.0" encoding="UTF-8" standalone="no"?>
<svg width="200px" height="200px" viewBox="0 0 200 200" version="1.1" xmlns="http://www.w3.org/2000/svg" xmlns:xlink="http://www.w3.org/1999/xlink">
    <!-- Generator: Sketch 3.7.2 (28276) - http://www.bohemiancoding.com/sketch -->
    <title>controls</title>
    <desc>Created with Sketch.</desc>
    <defs></defs>
    <g id="Page-1" stroke="none" stroke-width="1" fill="none" fill-rule="evenodd">
        <g id="controls">
            <path d="M46.844,92 C58.908,92 68.688,101.78 68.688,113.844 C68.688,125.907 58.908,135.688 46.844,135.688 C34.781,135.688 25,125.907 25,113.844 C25,101.78 34.781,92 46.844,92 Z M47.283,145.814 C44.781,145.814 42.346,145.531 40,145 L40,159.65 C40,163.671 43.262,166.931 47.283,166.931 C51.304,166.931 54.564,163.671 54.564,159.65 L54.564,145 C52.22,145.531 49.785,145.814 47.283,145.814 Z M47.283,80.787 C49.785,80.787 52.22,81.068 54.564,81.602 L54.564,39.282 C54.564,35.26 51.304,32 47.283,32 C43.262,32 40,35.26 40,39.282 L40,81.602 C42.344,81.07 44.781,80.787 47.283,80.787 Z M100.281,53.481 C102.783,53.481 105.218,53.764 107.562,54.298 L107.562,39.282 C107.562,35.26 104.302,32 100.281,32 C96.26,32 93,35.26 93,39.282 L93,54.298 C95.344,53.764 97.779,53.481 100.281,53.481 Z M100.281,118.815 C97.779,118.815 95.344,118.533 93,118 L93,159.957 C93,163.978 96.26,167.238 100.281,167.238 C104.302,167.238 107.562,163.978 107.562,159.957 L107.562,118 C105.218,118.533 102.783,118.815 100.281,118.815 Z M152.846,92 C164.91,92 174.692,101.78 174.692,113.845 C174.692,125.909 164.91,135.689 152.846,135.689 C140.782,135.689 131,125.909 131,113.845 C131,101.78 140.782,92 152.846,92 Z M153.279,80.787 C155.783,80.787 158.216,81.068 160.56,81.602 L160.56,39.282 C160.56,35.26 157.3,32 153.279,32 C149.258,32 146,35.26 146,39.282 L146,81.602 C148.342,81.07 150.777,80.787 153.279,80.787 Z M153.279,145.814 C150.777,145.814 148.342,145.531 146,145 L146,159.65 C146,163.671 149.259,166.931 153.279,166.931 C157.3,166.931 160.56,163.671 160.56,159.65 L160.56,145 C158.218,145.531 155.783,145.814 153.279,145.814 Z" id="Combined-Shape" fill="#ffffff"></path>
            <path d="M99.844,64 C87.78,64 78,73.78 78,85.845 C78,97.91 87.78,107.69 99.844,107.69 C111.908,107.69 121.69,97.91 121.69,85.845 C121.69,73.78 111.908,64 99.844,64 M99.844,77.834 C104.262,77.834 107.854,81.428 107.854,85.845 C107.854,90.26 104.262,93.855 99.844,93.855 C95.428,93.855 91.834,90.26 91.834,85.845 C91.834,81.426 95.428,77.834 99.844,77.834" id="Fill-18" fill="@color0"></path>
        </g>
    </g>
</svg>