<?xml version="1.0" encoding="UTF-8" standalone="no"?>
<svg width="200px" height="200px" viewBox="0 0 200 200" version="1.1" xmlns="http://www.w3.org/2000/svg" xmlns:xlink="http://www.w3.org/1999/xlink">
    <!-- Generator: Sketch 3.7.2 (28276) - http://www.bohemiancoding.com/sketch -->
    <title>fieldbus</title>
    <desc>Created with Sketch.</desc>
    <defs></defs>
    <g id="Page-1" stroke="none" stroke-width="1" fill="none" fill-rule="evenodd">
        <g id="fieldbus">
            <path d="M37.5,43.75 C37.5,40.30625 40.3,37.5 43.75,37.5 L68.75,37.5 L68.75,25 L43.75,25 C33.39375,25 25,33.39375 25,43.75 L25,68.75 L37.5,68.75 L37.5,43.75 L37.5,43.75 Z M150,99.7375 L135.76875,99.7375 L121.01875,133.4 L103,83.8375 L87.7375,119.9625 L74.79375,94.0875 L67.7375,106.375 L50,106.375 L50,150 L150,150 L150,99.7375 L150,99.7375 Z M50,100.13125 L64.11875,100.13125 L75.16875,80.875 L87.2625,105.0375 L103.44375,66.75 L121.5625,116.6 L131.6875,93.49375 L150,93.49375 L150,50 L50,50 L50,100.13125 L50,100.13125 Z M37.5,156.25 L37.5,131.25 L25,131.25 L25,156.25 C25,166.60625 33.39375,175 43.75,175 L68.75,175 L68.75,162.5 L43.75,162.5 C40.3,162.5 37.5,159.69375 37.5,156.25 L37.5,156.25 Z M162.5,156.25 C162.5,159.69375 159.7,162.5 156.25,162.5 L131.25,162.5 L131.25,175 L156.25,175 C166.60625,175 175,166.60625 175,156.25 L175,131.25 L162.5,131.25 L162.5,156.25 L162.5,156.25 Z M175,43.75 C175,33.39375 166.60625,25 156.25,25 L131.25,25 L131.25,37.5 L156.25,37.5 C159.7,37.5 162.5,40.30625 162.5,43.75 L162.5,68.75 L175,68.75 L175,43.75 L175,43.75 Z" id="Shape" fill="#ffffff"></path>
            <path d="M87.5,37.5 L75,37.5 L75,25 L87.5,25 L87.5,37.5 Z M37.5,75 L25,75 L25,87.5 L37.5,87.5 L37.5,75 Z M37.5,93.75 L25,93.75 L25,106.25 L37.5,106.25 L37.5,93.75 Z M125,25 L112.5,25 L112.5,37.5 L125,37.5 L125,25 Z M106.25,25 L93.75,25 L93.75,37.5 L106.25,37.5 L106.25,25 Z M37.5,112.5 L25,112.5 L25,125 L37.5,125 L37.5,112.5 Z M112.5,175 L125,175 L125,162.5 L112.5,162.5 L112.5,175 Z M162.5,106.25 L175,106.25 L175,93.75 L162.5,93.75 L162.5,106.25 Z M162.5,87.5 L175,87.5 L175,75 L162.5,75 L162.5,87.5 Z M162.5,125 L175,125 L175,112.5 L162.5,112.5 L162.5,125 Z M75,175 L87.5,175 L87.5,162.5 L75,162.5 L75,175 Z M93.75,175 L106.25,175 L106.25,162.5 L93.75,162.5 L93.75,175 Z" id="blue-dots" fill="@color0"></path>
        </g>
    </g>
</svg>