<?xml version="1.0" encoding="UTF-8" standalone="no"?>
<svg width="200px" height="200px" viewBox="0 0 200 200" version="1.1" xmlns="http://www.w3.org/2000/svg" xmlns:xlink="http://www.w3.org/1999/xlink">
    <!-- Generator: Sketch 3.7.2 (28276) - http://www.bohemiancoding.com/sketch -->
    <title>modules</title>
    <desc>Created with Sketch.</desc>
    <defs></defs>
    <g id="Page-1" stroke="none" stroke-width="1" fill="none" fill-rule="evenodd">
        <g id="modules">
            <path d="M137.5,47.55 L99.775,25 L62.5,47.30625 L62.5,87.925 L25,108.075 L25,153.175 L63.35,175 L100,153.79375 L136.65,175 L175,153.175 L175,108.31875 L137.5,87.69375 L137.5,47.55 Z M130.35625,87.91875 L103.35,102.81875 L103.35,71.84375 L130.35625,55.975 L130.35625,87.91875 L130.35625,87.91875 Z M36.1875,110.19375 L66.05,94.38125 L92.53125,109.4875 L63.35625,126.15625 L36.1875,110.19375 L36.1875,110.19375 Z M66.91875,132.6125 L96.43125,115.75625 L96.43125,147.35625 L66.91875,164.5875 L66.91875,132.6125 L66.91875,132.6125 Z M107.61875,109.2 L134.1625,94.2625 L163.96875,110.475 L136.675,126.15625 L107.61875,109.2 L107.61875,109.2 Z M167.85625,148.71875 L140.225,164.5875 L140.225,132.6125 L167.85625,116.75 L167.85625,148.71875 Z M99.7625,33.48125 L126.4625,49.70625 L99.7875,65.3875 L73.6875,49.425 L99.7625,33.48125 L99.7625,33.48125 Z" id="Shape" fill="#ffffff"></path>
            <polygon id="Combined-Shape" fill="@color0" points="163.96875 146.453606 144.1125 157.857139 144.1125 134.879402 163.96875 123.480361"></polygon>
            <polygon id="Path" fill="@color0" points="126.53125 85.5047775 107.175 96.1840879 107.175 73.9833068 126.53125 62.6096621"></polygon>
            <polygon id="Path" fill="@color0" points="71.134375 134.772093 92.215625 122.731404 92.215625 145.303789 71.134375 157.612346 71.134375 134.772093"></polygon>
        </g>
    </g>
</svg>