<?xml version="1.0" encoding="UTF-8" standalone="no"?>
<svg width="200px" height="200px" viewBox="0 0 200 200" version="1.1" xmlns="http://www.w3.org/2000/svg" xmlns:xlink="http://www.w3.org/1999/xlink">
    <!-- Generator: Sketch 3.7.2 (28276) - http://www.bohemiancoding.com/sketch -->
    <title>add-folder</title>
    <desc>Created with Sketch.</desc>
    <defs></defs>
    <g id="Page-1" stroke="none" stroke-width="1" fill="none" fill-rule="evenodd">
        <g id="add-folder">
            <path d="M163.051586,134.633164 L149.633758,134.633164 L149.633758,148.05178 L139.269414,148.05178 L139.269414,134.633164 L125.851586,134.633164 L125.851586,124.269993 L139.269414,124.269993 L139.269414,110.851377 L149.633758,110.851377 L149.633758,124.269993 L163.051586,124.269993 L163.051586,134.633164 Z M144.000503,98 C126.878465,98 113,111.879246 113,128.998994 C113,146.120754 126.878465,160 144.000503,160 C161.120529,160 175,146.120754 175,128.998994 C175,111.879246 161.120529,98 144.000503,98 L144.000503,98 Z" id="Fill-121" fill="#1fa22e"></path>
            <path d="M113.041,160 L25,160 L25,40 L64.448,40 L76.349,51.8821711 C79.642,55.1703506 84.099,57.0165044 88.746,57.0165044 L175,57.0165044 L175,98.5745205 C174.994,98.5685037 174.989,98.5624869 174.982,98.5574729 C157.955,81.4808006 130.396,81.4848118 113.372,98.5574729 C96.312,115.663227 96.5,143.0567 113.041,160" id="Fill-122" fill="#545658"></path>
        </g>
    </g>
</svg>