<?xml version="1.0" encoding="UTF-8" standalone="no"?>
<svg width="200px" height="200px" viewBox="0 0 200 200" version="1.1" xmlns="http://www.w3.org/2000/svg" xmlns:xlink="http://www.w3.org/1999/xlink">
    <!-- Generator: Sketch 3.7.2 (28276) - http://www.bohemiancoding.com/sketch -->
    <title>bookmark</title>
    <desc>Created with Sketch.</desc>
    <defs></defs>
    <g id="Page-1" stroke="none" stroke-width="1" fill="none" fill-rule="evenodd">
        <g id="bookmark">
            <g id="Group-2" transform="translate(30.000000, 25.000000)">
                <path d="M140.2803,14.1009934 L22.3193,14.1009934 C13.7223,14.1009934 13.7223,26.5887417 22.3193,26.5887417 L63.7593,26.5887417 L63.7593,41.2609272 L33.7983,41.2609272 L33.7983,134.897682 L125.7173,134.897682 L125.7173,41.2619205 L117.1203,41.2619205 L117.1203,26.5887417 L140.2803,26.5887417 L140.2803,149.364238 L18.6783,149.364238 C8.6253,149.364238 0.4743,141.268212 0.4743,131.280795 L0.4743,18.4410596 C0.4743,8.45364238 8.6253,0.357615894 18.6783,0.357615894 L140.2803,0.357615894 L140.2803,14.1009934 Z" id="Fill-70" fill="#545658"></path>
                <path d="M75.7734,31.4968212 L75.7734,83.925298 L90.2574,70.2603974 L104.7414,83.925298 L104.7414,31.4968212 C104.7414,25.0219868 107.6034,22.1282781 112.3864,21.164702 L83.6964,21.164702 C79.4484,21.164702 75.7734,25.2633775 75.7734,31.4968212" id="Fill-71" fill="#1fa22e"></path>
            </g>
        </g>
    </g>
</svg>