<?xml version="1.0" encoding="UTF-8" standalone="no"?>
<svg width="200px" height="200px" viewBox="0 0 200 200" version="1.1" xmlns="http://www.w3.org/2000/svg" xmlns:xlink="http://www.w3.org/1999/xlink">
    <!-- Generator: Sketch 3.7.2 (28276) - http://www.bohemiancoding.com/sketch -->
    <title>brick</title>
    <desc>Created with Sketch.</desc>
    <defs></defs>
    <g id="Page-1" stroke="none" stroke-width="1" fill="none" fill-rule="evenodd">
        <g id="brick">
            <path d="M94.25,50 L38,50 L38,34.375 C38,29.196 42.199,25 47.375,25 L84.875,25 C90.051,25 94.25,29.196 94.25,34.375 L94.25,50 Z M163,50 L106.75,50 L106.75,34.375 C106.75,29.196 110.949,25 116.125,25 L153.625,25 C158.801,25 163,29.196 163,34.375 L163,50 Z" id="Fill-111" fill="#1fa22e"></path>
            <path d="M25,174.75 L175,174.75 L175,118.5 L25,118.5 L25,174.75 Z M25,112.25 L175,112.25 L175,56 L25,56 L25,112.25 Z" id="Fill-112" fill="#ffffff"></path>
        </g>
    </g>
</svg>