<?xml version="1.0" encoding="UTF-8" standalone="no"?>
<svg width="200px" height="200px" viewBox="0 0 200 200" version="1.1" xmlns="http://www.w3.org/2000/svg" xmlns:xlink="http://www.w3.org/1999/xlink">
    <!-- Generator: Sketch 3.7.2 (28276) - http://www.bohemiancoding.com/sketch -->
    <title>id</title>
    <desc>Created with Sketch.</desc>
    <defs></defs>
    <g id="Page-1" stroke="none" stroke-width="1" fill="none" fill-rule="evenodd">
        <g id="id">
            <g id="Group-4" transform="translate(25.000000, 25.000000)">
                <path d="M88.8935098,98.1767509 C88.0255098,96.6517509 86.0835098,96.1167509 84.5595098,96.9857509 C83.0335098,97.8527509 82.4985098,99.7937509 83.3675098,101.319751 C86.2595098,106.407751 90.7625098,110.696751 96.9545098,114.234751 C97.8745098,114.759751 99.0025098,114.795751 99.9545098,114.327751 C99.9545098,114.326751 99.9555098,114.325751 99.9555098,114.325751 C101.00651,113.809751 101.68451,112.754751 101.71951,111.584751 C101.75551,110.414751 101.14051,109.324751 100.12451,108.743751 C94.9475098,105.785751 91.2245098,102.276751 88.8935098,98.1767509 M36.6805098,53.7647509 C38.0325098,54.6917509 39.7565098,54.3317509 40.6535098,52.9757509 C41.2485098,52.0727509 41.8675098,51.1397509 42.5565098,50.1447509 C50.1615098,39.1687509 63.6015098,33.7867509 78.5125098,35.7457509 C92.6845098,37.6097509 104.32051,45.7167509 108.15651,56.4017509 C111.55651,65.8727509 110.21151,73.5247509 109.13151,79.6707509 C108.19951,84.9817509 107.39251,89.5667509 110.21151,93.2457509 C111.35651,94.7387509 112.98751,95.8947509 115.22651,96.7597509 C117.09451,97.4827509 119.13751,96.2367509 119.36451,94.2597509 C119.53651,92.7617509 118.69451,91.3367509 117.30051,90.7597509 C116.34251,90.3647509 115.66151,89.9037509 115.25851,89.3787509 C114.13751,87.9157509 114.69151,84.7637509 115.39351,80.7727509 C116.53951,74.2467509 118.10951,65.3117509 114.13951,54.2527509 C109.50751,41.3507509 95.8485098,31.6127509 79.3405098,29.4427509 C64.9675098,27.5547509 50.2945098,31.6617509 40.4495098,42.5937509 C38.3505098,44.9557509 37.0585098,46.6647509 35.8075098,49.5647509 C34.9915098,51.4577509 35.3095098,52.8227509 36.6805098,53.7647509 M69.3085098,110.605751 C67.8485098,111.458751 66.0415098,112.512751 63.6865098,113.708751 C62.4505098,114.336751 61.7615098,115.690751 61.9795098,117.058751 C62.1985098,118.426751 63.2755098,119.497751 64.6455098,119.708751 C64.6465098,119.709751 64.6475098,119.709751 64.6485098,119.709751 C65.2855098,119.807751 65.9295098,119.702751 66.5035098,119.412751 C68.0535098,118.625751 69.3825098,117.895751 70.5385098,117.238751 C75.1185098,114.633751 75.5465098,114.589751 79.8845098,117.785751 C80.4095098,118.173751 80.9835098,118.582751 81.6065098,119.012751 C82.2945098,119.487751 83.1425098,119.673751 83.9675098,119.530751 C85.2435098,119.309751 86.2565098,118.337751 86.5325098,117.072751 C86.8065098,115.807751 86.2835098,114.510751 85.2175098,113.776751 C83.3695098,112.504751 82.0105098,111.420751 80.9795098,110.597751 C76.7295098,107.204751 75.3025098,107.105751 69.3085098,110.605751 M112.51051,106.014751 C113.32651,105.311751 113.71451,104.233751 113.53451,103.170751 C113.35351,102.110751 112.62851,101.224751 111.62751,100.829751 C108.67351,99.6667509 105.06451,97.8887509 103.18951,94.8837509 C100.94851,91.2917509 101.78951,86.5107509 102.76251,80.9747509 C104.13051,73.1977509 105.83451,63.5177509 99.0375098,53.7487509 C94.1575098,46.7367509 86.2125098,42.1607509 77.2435098,41.1957509 C67.8445098,40.1827509 58.4955098,43.2777509 51.5955098,49.6837509 C48.5575098,52.5057509 46.8135098,55.5007509 45.2755098,58.1417509 C42.8535098,62.3027509 40.8145098,65.7947509 33.9205098,68.0717509 C32.8265098,68.4327509 31.9635098,69.3647509 31.7835098,70.7407509 C31.4895098,73.0197509 33.6745098,74.8327509 35.8665098,74.1147509 C45.0975098,71.0807509 47.9705098,66.1467509 50.7695098,61.3407509 C52.2125098,58.8627509 53.5765098,56.5207509 55.9215098,54.3427509 C61.4715098,49.1897509 68.9945098,46.7017509 76.5615098,47.5157509 C83.7015098,48.2837509 89.9925098,51.8797509 93.8195098,57.3807509 C99.1195098,64.9977509 97.7895098,72.5597509 96.5015098,79.8727509 C95.4015098,86.1247509 94.2635098,92.5897509 97.7955098,98.2497509 C99.9195098,101.653751 103.55551,104.398751 108.93051,106.596751 C110.13651,107.090751 111.52451,106.865751 112.51051,106.014751 M36.0865098,101.401751 C53.1255098,97.2737509 69.4005098,87.6647509 76.1645098,71.5597509 C76.8455098,69.9407509 76.0845098,68.0777509 74.4655098,67.3977509 C72.8465098,66.7177509 70.9845098,67.4797509 70.3035098,69.0977509 C65.1095098,81.4607509 51.9845098,90.9977509 34.6885098,95.1997509 C33.0435098,95.5997509 31.9825098,97.1987509 32.2575098,98.8677509 C32.5535098,100.658751 34.3085098,101.830751 36.0865098,101.401751 M65.8865098,103.650751 C60.2295098,107.372751 53.8065098,110.458751 46.8915098,112.814751 C46.0055098,113.116751 45.0315098,113.022751 44.2195098,112.556751 L44.2185098,112.556751 C43.1415098,111.937751 42.5265098,110.744751 42.6465098,109.508751 C42.7675098,108.272751 43.6015098,107.222751 44.7785098,106.822751 C61.8235098,101.039751 76.3755098,90.2047509 83.0285098,74.3717509 C86.5845098,65.9047509 79.8015098,59.8467509 72.7875098,59.8467509 C68.5625098,59.8467509 64.2525098,62.0447509 62.0715098,67.2407509 C58.1415098,76.5977509 48.2505098,84.0107509 34.9935098,87.8007509 C33.0165098,88.3657509 31.0365098,86.9027509 31.0005098,84.8447509 C30.9745098,83.3727509 31.9455098,82.0667509 33.3605098,81.6607509 C44.6995098,78.4167509 53.0345098,72.3397509 56.2095098,64.7807509 C57.7315098,61.1567509 60.1625098,58.2027509 63.2415098,56.2377509 C66.0575098,54.4397509 69.3585098,53.4887509 72.7875098,53.4887509 C78.8565098,53.4887509 84.5975098,56.4537509 87.7685098,61.2257509 C90.8015098,65.7897509 91.1995098,71.3327509 88.8895098,76.8327509 C86.5895098,82.3077509 83.3765098,87.4217509 79.3405098,92.0357509 C75.5595098,96.3577509 71.0335098,100.265751 65.8865098,103.650751" id="Fill-79" fill="#1fa22e"></path>
                <path d="M75,0 C33.578,0 0,33.578 0,75 C0,116.422 33.578,150 75,150 C116.422,150 150,116.422 150,75 C150,33.578 116.422,0 75,0 M75,14.563 C91.144,14.563 106.32,20.85 117.735,32.265 C129.15,43.68 135.437,58.856 135.437,75 C135.437,91.144 129.15,106.32 117.735,117.735 C106.32,129.15 91.144,135.437 75,135.437 C58.856,135.437 43.68,129.15 32.265,117.735 C20.85,106.32 14.563,91.144 14.563,75 C14.563,58.856 20.85,43.68 32.265,32.265 C43.68,20.85 58.856,14.563 75,14.563" id="Fill-80" fill="#ffffff"></path>
            </g>
        </g>
    </g>
</svg>