<?xml version="1.0" encoding="UTF-8" standalone="no"?>
<svg width="200px" height="200px" viewBox="0 0 200 200" version="1.1" xmlns="http://www.w3.org/2000/svg" xmlns:xlink="http://www.w3.org/1999/xlink">
    <!-- Generator: Sketch 3.7.2 (28276) - http://www.bohemiancoding.com/sketch -->
    <title>location</title>
    <desc>Created with Sketch.</desc>
    <defs></defs>
    <g id="Page-1" stroke="none" stroke-width="1" fill="none" fill-rule="evenodd">
        <g id="location">
            <path d="M100.33,80.148 C92.144,80.148 85.508,73.511 85.508,65.327 C85.508,57.142 92.144,50.505 100.33,50.505 C108.518,50.505 115.152,57.143 115.152,65.327 C115.152,73.513 108.518,80.148 100.33,80.148 M100.33,25 C77.505,25 59,43.503 59,66.331 C59,89.156 77.088,115.683 100.33,155.48 C123.571,115.683 141.66,89.156 141.66,66.331 C141.66,43.503 123.156,25 100.33,25" id="Fill-34" fill="#ffffff"></path>
            <path d="M145.479,152.375 C145.479,156.268 143.521,163.597 130.41,168.945 C113.559,175.819 86.932,175.826 70.07,168.945 C56.958,163.596 55,156.267 55,152.375 C55,142.574 65.808,136.813 75.234,134 C77.06,137.097 78.946,140.272 80.89,143.545 C80.946,143.64 81.001,143.733 81.058,143.828 C49.246,151.707 75.064,163.054 100.24,163.054 C125.389,163.054 151.201,151.698 119.42,143.828 C119.477,143.733 119.534,143.64 119.589,143.545 C121.534,140.273 123.419,137.097 125.246,134 C134.675,136.816 145.479,142.576 145.479,152.375" id="Fill-36" fill="@color0"></path>
        </g>
    </g>
</svg>