<?xml version="1.0" encoding="UTF-8" standalone="no"?>
<svg width="200px" height="200px" viewBox="0 0 200 200" version="1.1" xmlns="http://www.w3.org/2000/svg" xmlns:xlink="http://www.w3.org/1999/xlink">
    <!-- Generator: Sketch 3.7.2 (28276) - http://www.bohemiancoding.com/sketch -->
    <title>mobile-config</title>
    <desc>Created with Sketch.</desc>
    <defs></defs>
    <g id="Page-1" stroke="none" stroke-width="1" fill="none" fill-rule="evenodd">
        <g id="mobile-config">
            <path d="M126.5,63.1932266 C122.803183,63.1932266 119.806773,60.1968168 119.806773,56.5 C119.806773,52.8041924 122.803183,49.8067734 126.5,49.8067734 C130.195808,49.8067734 133.193227,52.8041924 133.193227,56.5 C133.193227,60.1968168 130.195808,63.1932266 126.5,63.1932266 L126.5,63.1932266 Z M144.749942,58.9584891 L142.094653,59.9011118 C141.080375,60.2634261 140.266934,61.0344793 139.853148,62.0305913 C139.440373,63.0246848 139.47065,64.1489693 139.932878,65.1198504 L141.141938,67.667152 L137.666143,71.142947 L135.104712,69.9258132 C134.140895,69.4676219 133.028722,69.4383541 132.041693,69.8491115 L132.040684,69.8501208 C131.039525,70.2659244 130.259389,71.0884484 129.896066,72.1108004 L128.95748,74.7499421 L124.041511,74.7499421 L123.097879,72.0926343 C122.736574,71.0793653 121.964511,70.2669336 120.970418,69.8561762 L120.970418,69.8551669 C119.975315,69.4413818 118.851031,69.4716588 117.878131,69.933887 L115.333857,71.142947 L111.856044,67.667152 L113.066113,65.1218689 C113.52935,64.1489693 113.558618,63.0246848 113.144833,62.0305913 L113.144833,62.0295821 C112.733066,61.0344793 111.918616,60.2634261 110.906357,59.902121 L108.249049,58.9584891 L108.249049,54.0425201 L110.906357,53.0988882 C111.919625,52.7385924 112.733066,51.9655207 113.144833,50.9724364 L113.144833,50.9714272 C113.557609,49.9753152 113.528341,48.8510307 113.066113,47.8781311 L111.856044,45.3338573 L115.333857,41.857053 L117.878131,43.0681314 C118.851031,43.5303597 119.975315,43.5586182 120.970418,43.1458423 L120.970418,43.1458423 C121.964511,42.7350849 122.736574,41.9186162 123.097879,40.9063565 L124.041511,38.2500579 L128.95748,38.2500579 L129.901112,40.9063565 C130.262417,41.9206347 131.034479,42.7350849 132.028573,43.1458423 L132.029582,43.1458423 C133.024685,43.5586182 134.148969,43.5293505 135.121869,43.0681314 L137.666143,41.857053 L141.141938,45.3338573 L139.932878,47.8781311 C139.47065,48.8510307 139.440373,49.9753152 139.853148,50.9714272 C140.265924,51.9645114 141.080375,52.7396016 142.093643,53.0988882 L144.749942,54.0425201 L144.749942,58.9584891 Z M126.5,26 C109.655918,26 96,39.6559181 96,56.5 C96,73.3450912 109.655918,87 126.5,87 C143.344082,87 157,73.3450912 157,56.5 C157,39.6559181 143.344082,26 126.5,26 L126.5,26 Z" id="Fill-119" fill="@color0"></path>
            <path d="M87.5005029,163.423 C82.6248066,163.423 78.6709434,159.478 78.6709434,154.612 C78.6709434,149.746 82.6248066,145.801 87.5005029,145.801 C92.3751974,145.801 96.3290605,149.746 96.3290605,154.612 C96.3290605,159.478 92.3751974,163.423 87.5005029,163.423 M125.594261,96.777 C123.365829,96.777 121.165453,96.599 119.006159,96.254 L119.006159,136.268 L55.993845,136.268 L55.993845,45.955 L85.5125495,45.955 C87.4483993,37.903 91.7850237,30.641 98.0745317,25 L51.8305654,25 C46.953867,25 43.0000039,28.946 43.0000039,33.814 C43.0000039,33.814 43.0030099,150.26 43.0000039,154.787 C42.98798,173.526 70.7381674,174.989 87.4383794,175 C104.139593,175.011 132,173.573 132,154.787 L132,96.283 C129.899823,96.609 127.759567,96.777 125.594261,96.777" id="Fill-120" fill="#ffffff"></path>
        </g>
    </g>
</svg>