<?xml version="1.0" encoding="UTF-8" standalone="no"?>
<svg width="200px" height="200px" viewBox="0 0 200 200" version="1.1" xmlns="http://www.w3.org/2000/svg" xmlns:xlink="http://www.w3.org/1999/xlink">
    <!-- Generator: Sketch 3.7.2 (28276) - http://www.bohemiancoding.com/sketch -->
    <title>alert-idle</title>
    <desc>Created with Sketch.</desc>
    <defs></defs>
    <g id="Page-1" stroke="none" stroke-width="1" fill="none" fill-rule="evenodd">
        <g id="alert-idle">
            <path d="M77.6959008,156.917 L114.143774,156.917 C114.143774,166.904 105.984223,175 95.9198372,175 C85.8554511,175 77.6959008,166.904 77.6959008,156.917 M136,88.138 C132.939161,72.555 128.982343,57.206 115.730129,49.659 C111.630197,47.324 109.090416,42.973 109.098479,38.281 L109.098479,38.258 C109.098479,30.937 103.116891,25 95.7364086,25 C88.3569338,25 82.3753464,30.937 82.3753464,38.258 L82.3753464,38.281 C82.3824014,42.979 79.8496754,47.32 75.7436961,49.659 C45.9899603,66.603 63.086113,122.876 32,132.821 L32,145.965 L107.864871,145.965 C104.61254,140.191 102.880047,133.661 102.880047,126.865 C102.880047,116.383 106.996104,106.527 114.466285,99.115 C120.39748,93.23 127.879756,89.448 136,88.138 M95.7364086,43.638 C92.7491424,43.638 90.3151856,41.225 90.3151856,38.259 C90.3151856,35.292 92.7491424,32.88 95.7364086,32.88 C98.7266983,32.88 101.157632,35.292 101.157632,38.259 C101.157632,41.225 98.7266983,43.638 95.7364086,43.638" id="Fill-115" fill="#545658"></path>
            <path d="M136.237187,142.082323 L123.008086,128.849266 L128.640415,123.215949 L136.237187,130.814699 L153.773829,113.277069 L159.408135,118.909397 L136.237187,142.082323 Z M141.000494,99 C125.536059,99 113,111.536059 113,126.999506 C113,142.464929 125.536059,155 141.000494,155 C156.463941,155 169,142.464929 169,126.999506 C169,111.536059 156.463941,99 141.000494,99 L141.000494,99 Z" id="Fill-116" fill="@color0"></path>
        </g>
    </g>
</svg>