<?xml version="1.0" encoding="UTF-8" standalone="no"?>
<svg width="200px" height="200px" viewBox="0 0 200 200" version="1.1" xmlns="http://www.w3.org/2000/svg" xmlns:xlink="http://www.w3.org/1999/xlink">
    <!-- Generator: Sketch 3.7.2 (28276) - http://www.bohemiancoding.com/sketch -->
    <title>atom</title>
    <desc>Created with Sketch.</desc>
    <defs></defs>
    <g id="Page-1" stroke="none" stroke-width="1" fill="none" fill-rule="evenodd">
        <g id="atom">
            <path d="M164.951923,123.011393 C165.847923,121.335679 166.355154,119.426393 166.355154,117.394964 C166.355154,110.760679 160.949,105.378893 154.281769,105.378893 C147.613462,105.378893 142.206231,110.758536 142.206231,117.394964 C142.206231,124.028179 147.613462,129.408893 154.281769,129.408893 C154.838538,129.408893 155.383462,129.364964 155.919769,129.293179 C159.437,135.66925 159.379923,139.23175 158.558231,140.404964 C157.771,141.52675 155.369462,142.198536 152.136538,142.198536 C141.943462,142.198536 127.745308,136.324964 118.597923,131.888179 C115.539462,134.012821 111.749769,136.538179 108.043,138.848179 C120.301615,145.300321 138.322846,153.118536 152.134385,153.118536 C161.140692,153.118536 165.494692,149.597821 167.562385,146.643893 C170.500231,142.452464 171.958385,135.142107 164.951923,123.011393 M149.828692,78.9221071 C159.410077,66.36175 159.701923,59.7574643 158.519462,58.0185357 C157.716077,56.8421071 155.392077,56.1671071 152.138692,56.1671071 C139.715308,56.1671071 120.793769,65.2410357 109.900692,71.3856786 C117.944231,76.58425 125.456846,82.0656786 132.308231,87.6563929 C129.716077,90.22675 126.996846,92.7435357 124.218385,95.18425 C116.616385,89.0674643 108.163615,83.0738929 99.405,77.7081786 C89.3400769,84.1528214 79.2126923,91.7246071 70.1094615,99.7913929 C76.9554615,105.703536 85.1034615,111.910321 93.7931538,117.658536 C90.4654615,119.713536 87.113,121.687107 83.2823846,123.75175 C83.2802308,123.749607 83.2780769,123.749607 83.2759231,123.749607 C83.249,123.727107 83.2188462,123.709964 83.1897692,123.687464 C75.9162308,118.646393 68.7374615,113.115679 62.095,107.322464 C44.1577692,125.22175 39.1059231,138.187107 41.4805385,141.679964 C42.2817692,142.85425 44.6079231,143.531393 47.8634615,143.531393 C62.8186923,143.531393 86.553,130.988179 100.597154,121.990321 C117.838692,110.947107 137.503308,95.0813929 149.828692,78.9221071 M70.0373077,149.777821 C57.8357692,154.162107 39.6314615,158.433893 32.3956154,147.803179 C28.8202308,142.552107 27.4848462,132.457107 41.4299231,114.176393 C45.1291538,109.326036 49.4142308,104.562464 53.7553077,100.193179 C63.5025385,90.5278214 74.4817692,81.2278214 88.7822308,71.5978214 C81.9006923,67.8874643 74.3826923,64.3421071 67.0466923,61.7031786 C59.5373077,58.9978214 52.9293077,57.5021071 47.8634615,57.5021071 C44.6283846,57.5021071 42.229,58.1738929 41.4406923,59.29675 C40.605,60.4924643 40.563,64.1663929 44.2773077,70.7546071 C44.7177692,70.7085357 45.1614615,70.6806786 45.6094615,70.6806786 C52.2788462,70.6806786 57.685,76.05925 57.685,82.6924643 C57.685,89.3278214 52.2788462,94.7053214 45.6094615,94.7053214 C38.9433077,94.7053214 33.5360769,89.3278214 33.5360769,82.6924643 C33.5360769,80.5431786 34.1057692,78.5299643 35.1008462,76.7835357 C28.0351538,64.5971071 29.4911538,57.2610357 32.4311538,53.05675 C34.501,50.10175 38.8528462,46.5799643 47.8613077,46.5799643 C63.8600769,46.5799643 85.4168462,56.9031786 99.2951538,64.89925 C113.385615,56.4263929 135.671462,45.2471071 152.136538,45.2471071 C161.180538,45.2471071 165.541,48.8621071 167.604385,51.8953214 C171.179769,57.1463929 172.515154,67.2435357 158.567923,85.5199643 C138.944231,111.250321 99.9262308,139.03675 70.0373077,149.777821 M100.001615,163.55425 C97.2673077,163.55425 92.9994615,159.152821 89.2603846,149.408179 C85.5686923,151.243536 82.3777692,152.688893 79.2546923,154.001393 C84.1342308,166.382821 91.0793077,174.475321 100.001615,174.475321 C109.157615,174.475321 116.236231,165.945679 121.133,153.007107 C118.046538,151.755679 114.786692,150.322107 111.072385,148.534964 C107.252538,158.88925 102.812385,163.55425 100.001615,163.55425 M88.9297692,51.1656786 C85.2348462,49.3881786 81.9696154,47.9513929 78.8691538,46.6935357 C83.7680769,33.7549643 90.8456154,25.2253214 100.001615,25.2253214 C108.920692,25.2253214 115.865769,33.3178214 120.747462,45.6981786 C117.617923,47.0128214 114.402231,48.4774643 110.743923,50.2913929 C107.003769,40.54675 102.734846,36.1453214 100.001615,36.1453214 C97.1897692,36.1453214 92.7474615,40.8103214 88.9297692,51.1656786" id="Fill-38" fill="#545658"></path>
            <path d="M45.6553385,69.8568571 C52.7921077,69.8568571 58.5784154,75.6136429 58.5784154,82.714 C58.5784154,89.8154286 52.7921077,95.5711429 45.6553385,95.5711429 C38.5164154,95.5711429 32.7322615,89.8154286 32.7322615,82.714 C32.7322615,75.6136429 38.5164154,69.8568571 45.6553385,69.8568571" id="Fill-40" fill="@color0"></path>
        </g>
    </g>
</svg>