<?xml version="1.0" encoding="UTF-8" standalone="no"?>
<svg width="200px" height="200px" viewBox="0 0 200 200" version="1.1" xmlns="http://www.w3.org/2000/svg" xmlns:xlink="http://www.w3.org/1999/xlink">
    <!-- Generator: Sketch 3.7.2 (28276) - http://www.bohemiancoding.com/sketch -->
    <title>group</title>
    <desc>Created with Sketch.</desc>
    <defs></defs>
    <g id="Page-1" stroke="none" stroke-width="1" fill="none" fill-rule="evenodd">
        <g id="group">
            <path d="M106.25,37.5 L131.25,37.5 L131.25,25 L106.25,25 L106.25,37.5 Z M68.75,37.5 L93.75,37.5 L93.75,25 L68.75,25 L68.75,37.5 Z M106.25,175 L131.25,175 L131.25,162.5 L106.25,162.5 L106.25,175 Z M56.25,162.5 L37.5,162.5 L37.5,143.75 L25,143.75 L25,175 L56.25,175 L56.25,162.5 Z M162.5,143.75 L162.5,162.5 L143.75,162.5 L143.75,175 L175,175 L175,143.75 L162.5,143.75 Z M162.5,131.25 L175,131.25 L175,106.25 L162.5,106.25 L162.5,131.25 Z M162.5,93.75 L175,93.75 L175,68.75 L162.5,68.75 L162.5,93.75 Z M37.5,56.25 L37.5,37.5 L56.25,37.5 L56.25,25 L25,25 L25,56.25 L37.5,56.25 Z M25,93.75 L37.5,93.75 L37.5,68.75 L25,68.75 L25,93.75 Z M25,131.25 L37.5,131.25 L37.5,106.25 L25,106.25 L25,131.25 Z M143.75,37.5 L162.5,37.5 L162.5,56.25 L175,56.25 L175,25 L143.75,25 L143.75,37.5 Z M68.75,175 L93.75,175 L93.75,162.5 L68.75,162.5 L68.75,175 Z" id="Fill-113" fill="#545658"></path>
            <path d="M124.75,56 L124.75,68.5 L68.5,68.5 L68.5,124.75 L56,124.75 L56,56 L124.75,56 Z M74.75,143.5 L143.5,143.5 L143.5,74.75 L74.75,74.75 L74.75,143.5 Z M87.25,131 L131,131 L131,87.25 L87.25,87.25 L87.25,131 Z" id="Fill-114" fill="@color0"></path>
        </g>
    </g>
</svg>